<svg width="30" height="22" viewBox="0 0 30 22" fill="none" xmlns="http://www.w3.org/2000/svg">
<path fill-rule="evenodd" clip-rule="evenodd" d="M2.46925 22C1.11199 22 0.0117187 20.8997 0.0117187 19.5425L0.0117187 2.69082C0.0117187 1.33357 1.11199 0.233294 2.46925 0.233294L27.6714 0.233294C29.1514 0.233294 29.9672 1.95226 29.0313 3.09873L26.4983 6.20158L29.6044 10.0066C30.1318 10.6527 30.1319 11.5806 29.6044 12.2267L26.4983 16.0317L29.0313 19.1346C29.9672 20.281 29.1514 22 27.6714 22L2.46925 22ZM2.11817 19.5425C2.11817 19.7364 2.27536 19.8935 2.46925 19.8935L26.9316 19.8935L24.6853 17.1418C24.1579 16.4957 24.1579 15.5677 24.6853 14.9216L27.7914 11.1166L24.6853 7.31165C24.1579 6.66557 24.1579 5.73759 24.6853 5.09152L26.9316 2.33975L2.46925 2.33975C2.27536 2.33975 2.11817 2.49693 2.11817 2.69082L2.11817 19.5425Z" fill="#ACADB9"/>
<path fill-rule="evenodd" clip-rule="evenodd" d="M9.49048 17.7871C8.9088 17.7871 8.43726 17.3156 8.43726 16.7339L8.43726 5.49945C8.43726 4.91777 8.9088 4.44623 9.49048 4.44623C10.0722 4.44623 10.5437 4.91777 10.5437 5.49945L10.5437 16.7339C10.5437 17.3156 10.0722 17.7871 9.49048 17.7871Z" fill="#ACADB9"/>
<path fill-rule="evenodd" clip-rule="evenodd" d="M13.7034 17.7871C13.1217 17.7871 12.6501 17.3156 12.6501 16.7339L12.6501 5.49945C12.6501 4.91777 13.1217 4.44623 13.7034 4.44623C14.2851 4.44623 14.7566 4.91777 14.7566 5.49945L14.7566 16.7339C14.7566 17.3156 14.2851 17.7871 13.7034 17.7871Z" fill="#ACADB9"/>
<path fill-rule="evenodd" clip-rule="evenodd" d="M17.916 17.7871C17.3343 17.7871 16.8628 17.3156 16.8628 16.7339V5.49945C16.8628 4.91777 17.3343 4.44623 17.916 4.44623C18.4977 4.44623 18.9692 4.91777 18.9692 5.49945V16.7339C18.9692 17.3156 18.4977 17.7871 17.916 17.7871Z" fill="#ACADB9"/>
</svg>
