<svg width="35" height="35" viewBox="0 0 35 35" fill="none" xmlns="http://www.w3.org/2000/svg">
<rect width="35" height="35" fill="#1E1E1E"/>
<g clip-path="url(#clip0_0_1)">
<rect x="-1367" y="-346" width="1440" height="3631" fill="#F9F9F9"/>
<g filter="url(#filter0_d_0_1)">
<g filter="url(#filter1_d_0_1)">
<rect x="-400" y="-97" width="377" height="591" rx="23.8005" fill="white"/>
</g>
</g>
<g clip-path="url(#clip1_0_1)">
<path d="M17.2837 1.2832C8.27114 1.2832 0.945312 8.58696 0.945312 17.6218C0.945312 26.635 8.24898 33.9604 17.2837 33.9604C26.2967 33.9604 33.6221 26.6567 33.6221 17.6218C33.6221 8.58696 26.2967 1.2832 17.2837 1.2832ZM17.2837 23.0385C14.2869 23.0385 11.845 20.5965 11.845 17.5997C11.845 14.6028 14.2869 12.1608 17.2837 12.1608C20.2805 12.1608 22.7225 14.6028 22.7225 17.5997C22.7225 20.6191 20.281 23.0385 17.2837 23.0385Z" fill="#EDB66B"/>
<path d="M9.90945 22.9485C9.50571 22.9485 9.16579 22.7996 8.91052 22.5447C8.31532 21.9282 8.3366 20.8659 8.37914 19.6121C8.40041 18.5281 8.44296 17.168 7.93286 16.637C7.82649 16.5094 7.61421 16.3609 7.12537 16.3396H7.04028C6.50891 16.3396 6.12644 16.446 5.91371 16.6796C5.4887 17.1259 5.55252 18.1248 5.59506 18.9323C5.65888 19.7823 5.70143 20.5264 5.2126 20.9515C4.8514 21.2914 4.36257 21.4616 3.83119 21.4616C2.78971 21.4616 1.55722 20.7392 1.15348 19.8891C1.11138 19.8036 1.0901 19.7398 1.0901 19.6547L1.06883 19.442C1.00501 18.6345 0.919922 17.7419 0.919922 17.3594C0.919922 8.34849 8.2515 1.03809 17.2406 1.03809C26.2297 1.03809 33.5617 8.36976 33.5617 17.3594C33.5617 17.7206 33.5404 18.1031 33.5192 18.4647C33.4341 19.5909 32.5202 20.4622 31.4154 20.4622C31.1818 20.4622 30.9265 20.4196 30.693 20.3345C29.6302 19.9308 28.7377 19.1658 27.8876 18.4217C26.6551 17.3377 25.486 16.3392 23.8285 16.2966C22.787 16.2754 21.8519 15.7014 21.3635 14.8089C20.1736 12.5987 20.0247 12.5136 17.0283 12.5136C11.5031 12.5136 11.5031 15.6163 11.5031 16.6366C11.5031 17.2105 11.5457 17.8265 11.567 18.4217C11.6733 20.1644 11.7584 21.6942 11.0143 22.4809C10.7808 22.7787 10.377 22.9485 9.90945 22.9485Z" fill="#86522C"/>
<path d="M17.2835 1.73961C25.9114 1.73961 32.9243 8.73136 32.9243 17.3806C32.9243 17.7418 32.903 18.103 32.8818 18.4434C32.8179 19.2083 32.1806 19.7823 31.4795 19.7823C31.3306 19.7823 31.1609 19.761 31.012 19.6972C28.6316 18.8046 27.0805 15.6806 23.9144 15.6172C23.1494 15.5959 22.4053 15.1709 22.0441 14.4906C20.7053 11.983 20.259 11.8341 17.0925 11.8341C13.5647 11.8341 10.8657 13.0241 10.8657 16.637C10.8657 19.2296 11.5247 22.2473 9.93061 22.2473C7.82682 22.2473 10.7381 15.7444 7.16825 15.6593H7.06188C3.59796 15.6593 5.51074 19.7823 4.78835 20.4621C4.53308 20.6961 4.21443 20.7808 3.87451 20.7808C3.02448 20.7808 2.08936 20.1856 1.83409 19.6121C1.79154 19.1658 1.68518 17.8269 1.68518 17.3806C1.64263 8.73136 8.65557 1.73961 17.2835 1.73961ZM17.2835 0.336914C7.89063 0.336914 0.26123 7.96641 0.26123 17.3594C0.26123 17.7631 0.346322 18.677 0.41014 19.5057L0.431413 19.718C0.452686 19.8882 0.495231 20.0579 0.55905 20.2069C1.09043 21.3117 2.53565 22.1622 3.85323 22.1622C4.55435 22.1622 5.19209 21.9282 5.70219 21.4819C6.44586 20.8233 6.38204 19.8457 6.31822 18.8893C6.29695 18.4004 6.21186 17.4015 6.44586 17.1679C6.4884 17.1254 6.67941 17.0403 7.06188 17.0403H7.1257C7.18952 17.0403 7.38053 17.0403 7.44435 17.1041C7.763 17.4227 7.72045 18.8254 7.69918 19.5904C7.65663 20.9293 7.63536 22.2043 8.42157 23.0118C8.80404 23.4155 9.33541 23.6283 9.93061 23.6283C10.5896 23.6283 11.1631 23.3943 11.5881 22.9271C12.5232 21.9282 12.4381 20.2707 12.3318 18.3579C12.2892 17.7839 12.268 17.1679 12.268 16.6153C12.268 15.595 12.268 13.1938 17.092 13.1938C19.791 13.1938 19.791 13.1938 20.8108 15.1279C21.406 16.2541 22.5959 16.9556 23.8709 16.9769C25.2736 16.9982 26.2938 17.8903 27.4838 18.9318C28.3976 19.718 29.3327 20.5472 30.5014 20.9722C30.7988 21.0786 31.1392 21.1424 31.4578 21.1424C32.9243 21.1424 34.1568 19.9946 34.2414 18.5072C34.2627 18.1248 34.284 17.721 34.284 17.3385C34.3061 7.98769 26.6767 0.336914 17.2835 0.336914Z" fill="#4C2F1B"/>
<path d="M19.6292 32.6762C19.7475 32.9856 20.2333 33.0871 20.7141 32.9027C21.195 32.7188 21.4888 32.319 21.3705 32.0097C21.2522 31.7003 20.7664 31.5993 20.2856 31.7832C19.8047 31.9676 19.5109 32.3673 19.6292 32.6762Z" fill="#E3A358"/>
<path d="M28.5864 26.9525C28.7933 27.4931 29.2968 27.8734 29.9071 27.9501C30.5173 28.0263 31.1413 27.7874 31.5446 27.3234C31.9479 26.8589 32.0689 26.2398 31.8619 25.6991C31.655 25.158 31.1515 24.7782 30.5413 24.7015C29.931 24.6253 29.3065 24.8641 28.9032 25.3282C28.4999 25.7926 28.3794 26.4118 28.5864 26.9525Z" fill="#E3A358"/>
<path d="M13.118 33.6976C13.325 34.2383 13.8284 34.6185 14.4387 34.6952C15.0489 34.7714 15.6734 34.5325 16.0767 34.0685C16.48 33.6041 16.601 32.9849 16.394 32.4442C16.187 31.9035 15.6836 31.5233 15.0733 31.4466C14.4631 31.3704 13.8386 31.6093 13.4353 32.0733C13.032 32.5377 12.911 33.1569 13.118 33.6976Z" fill="#E3A358"/>
<path d="M9.713 31.1998C10.0378 31.2733 10.3631 31.2304 10.567 31.0863C10.7704 30.9423 10.821 30.7198 10.6995 30.5018C10.5781 30.2841 10.3033 30.1042 9.97846 30.0306C9.65361 29.9566 9.32831 30.0001 9.12445 30.1441C8.92103 30.2881 8.87051 30.5106 8.99194 30.7282C9.11293 30.9463 9.38814 31.1258 9.713 31.1998Z" fill="#E3A358"/>
<path d="M16.667 24.6018C16.9378 24.6635 17.202 24.6586 17.3602 24.5886C17.5184 24.5185 17.5463 24.3949 17.4342 24.2637C17.3216 24.1325 17.0854 24.0137 16.8146 23.9521C16.5438 23.8905 16.2797 23.8954 16.1215 23.9654C15.9633 24.0354 15.9353 24.1591 16.0475 24.2903C16.16 24.4219 16.3962 24.5402 16.667 24.6018Z" fill="#E3A358"/>
<path d="M4.43867 26.1244C4.64785 26.1718 4.85748 26.1413 4.98955 26.0446C5.12162 25.9476 5.15485 25.7991 5.07818 25.6551C5.00107 25.5106 4.82513 25.3927 4.61639 25.3453C4.4072 25.2979 4.19758 25.328 4.06595 25.4251C3.93388 25.5217 3.9002 25.6706 3.97732 25.8146C4.05354 25.9587 4.22993 26.077 4.43867 26.1244Z" fill="#E3A358"/>
<path d="M12.8587 23.037C13.1344 23.224 13.4269 23.341 13.6263 23.3437C13.8257 23.3463 13.902 23.2342 13.8257 23.0498C13.7499 22.865 13.5332 22.6363 13.2576 22.4493C12.9819 22.2623 12.6894 22.1453 12.4895 22.1426C12.2901 22.14 12.2143 22.2521 12.2901 22.4365C12.3663 22.6213 12.583 22.85 12.8587 23.037Z" fill="#E3A358"/>
<path d="M17.2846 34.9057C7.75349 34.9057 0 27.1521 0 17.6217C0 8.09051 7.75349 0.336914 17.2846 0.336914C26.8153 0.336914 34.5688 8.09051 34.5688 17.6217C34.5688 27.1521 26.8148 34.9057 17.2846 34.9057ZM17.2846 2.22845C8.80916 2.22845 1.91411 9.12403 1.91411 17.5991C1.91411 26.0742 8.8096 32.9698 17.2846 32.9698C25.7596 32.9698 32.6551 26.0747 32.6551 17.5991C32.6551 9.12358 25.7596 2.22845 17.2846 2.22845ZM17.2846 24.0059C13.7639 24.0059 10.9001 21.142 10.9001 17.6217C10.9001 14.0891 13.7639 11.215 17.2846 11.215C20.8048 11.215 23.6687 14.0789 23.6687 17.5996C23.6687 21.1318 20.8048 24.0059 17.2846 24.0059ZM17.2846 13.1282C14.8192 13.1282 12.8138 15.1341 12.8138 17.5991C12.8138 20.0641 14.8196 22.07 17.2846 22.07C19.7496 22.07 21.7554 20.0641 21.7554 17.5991C21.755 15.1341 19.7496 13.1282 17.2846 13.1282Z" fill="#4C2F1B"/>
<path d="M18.2165 8.6978L14.4871 6.23367C14.3315 6.14459 14.3094 5.94515 14.398 5.78959L14.8199 5.16824C14.9086 5.01268 15.1084 4.99052 15.264 5.07916L18.9934 7.54329C19.1489 7.63237 19.1711 7.83225 19.082 7.98737L18.6601 8.60916C18.5719 8.76428 18.372 8.78644 18.2165 8.6978Z" fill="#DB79AD"/>
<path d="M3.40971 12.6042L4.38649 10.4733C4.45297 10.3178 4.65284 10.2513 4.8084 10.3178L5.49667 10.6284C5.65222 10.6949 5.7187 10.8948 5.65222 11.0504L4.67545 13.1812C4.60853 13.3368 4.40909 13.4032 4.25354 13.3368L3.56527 13.0261C3.40971 12.937 3.32108 12.7597 3.40971 12.6042ZM27.651 12.4265L25.786 10.9834C25.6531 10.8726 25.6305 10.6728 25.7196 10.5394L26.1858 9.94017C26.2966 9.80721 26.4965 9.78461 26.6299 9.87369L28.4948 11.3167C28.6277 11.4279 28.6503 11.6274 28.5613 11.7608L28.095 12.3604C27.9842 12.5155 27.7844 12.5373 27.651 12.4265Z" fill="#F6B173"/>
<path d="M22.9667 9.40767L21.6793 6.49946C21.6128 6.3439 21.6793 6.14403 21.8349 6.07755L22.5227 5.76687C22.6782 5.70039 22.8781 5.76687 22.9446 5.92243L24.232 8.83064C24.2985 8.9862 24.232 9.18563 24.0765 9.25255L23.3882 9.56323C23.2335 9.62971 23.0558 9.56279 22.9667 9.40767ZM8.67053 14.8243L7.38308 11.9161C7.31661 11.7606 7.38308 11.5611 7.53864 11.4942L8.2269 11.1835C8.38246 11.1171 8.58189 11.1835 8.64882 11.3391L9.93626 14.2473C10.0027 14.4029 9.93626 14.6027 9.78071 14.6692L9.09244 14.9799C8.91517 15.0685 8.73745 14.9799 8.67053 14.8243Z" fill="#F7E774"/>
<path d="M9.27078 8.80848L10.603 5.92243C10.6695 5.76687 10.8693 5.70039 11.0249 5.76687L11.7132 6.07755C11.8687 6.14403 11.9352 6.3439 11.8687 6.49946L10.5365 9.38551C10.47 9.54107 10.2702 9.60755 10.1146 9.54107L9.42634 9.2304C9.27078 9.16392 9.2043 8.9862 9.27078 8.80848ZM29.3164 16.0458L29.7605 12.8934C29.7826 12.7156 29.9382 12.6048 30.1159 12.627L30.8707 12.7378C31.0484 12.76 31.1592 12.9155 31.137 13.0928L30.6929 16.2452C30.6708 16.4225 30.5152 16.5337 30.338 16.5115L29.5832 16.4008C29.405 16.3786 29.2943 16.2235 29.3164 16.0458Z" fill="#EC6A69"/>
<path d="M7.61857 26.9096C7.77368 26.9894 7.94608 27.0062 8.07106 26.9544C8.19559 26.9025 8.25365 26.7895 8.22307 26.6579C8.19249 26.5262 8.07771 26.3964 7.92259 26.3166C7.76748 26.2368 7.59508 26.22 7.4701 26.2719C7.34557 26.3237 7.28751 26.4367 7.31809 26.5684C7.34867 26.6995 7.46301 26.8298 7.61857 26.9096Z" fill="#E3A358"/>
<path d="M23.9424 27.689C23.9819 27.7927 24.1454 27.8401 24.3701 27.8131C24.5952 27.7865 24.8483 27.6894 25.0335 27.5591C25.2188 27.4288 25.3088 27.2843 25.2693 27.1806C25.2294 27.0769 25.0663 27.0295 24.8412 27.0561C24.6161 27.0827 24.363 27.1793 24.1778 27.31C23.9925 27.4408 23.9025 27.5853 23.9424 27.689Z" fill="#E3A358"/>
<path d="M13.9771 26.5245C14.1876 26.6801 14.4375 26.7488 14.6325 26.7049C14.8275 26.661 14.9383 26.5113 14.9224 26.3118C14.9068 26.1128 14.7677 25.8939 14.5572 25.7383C14.3467 25.5828 14.0967 25.5141 13.9017 25.5579C13.7067 25.6018 13.5959 25.7516 13.6119 25.9511C13.6269 26.1509 13.7665 26.3694 13.9771 26.5245Z" fill="#E3A358"/>
<path d="M20.1969 29.504C20.2222 29.6861 20.469 29.8022 20.7482 29.7637C21.0279 29.7251 21.2335 29.5461 21.2083 29.3639C21.183 29.1818 20.9362 29.0652 20.6569 29.1042C20.3773 29.1428 20.1717 29.3218 20.1969 29.504Z" fill="#E3A358"/>
</g>
</g>
<defs>
<filter id="filter0_d_0_1" x="-450" y="-132" width="497" height="711" filterUnits="userSpaceOnUse" color-interpolation-filters="sRGB">
<feFlood flood-opacity="0" result="BackgroundImageFix"/>
<feColorMatrix in="SourceAlpha" type="matrix" values="0 0 0 0 0 0 0 0 0 0 0 0 0 0 0 0 0 0 127 0" result="hardAlpha"/>
<feOffset dx="10" dy="25"/>
<feGaussianBlur stdDeviation="30"/>
<feComposite in2="hardAlpha" operator="out"/>
<feColorMatrix type="matrix" values="0 0 0 0 0 0 0 0 0 0.352941 0 0 0 0 0.392157 0 0 0 0.2 0"/>
<feBlend mode="normal" in2="BackgroundImageFix" result="effect1_dropShadow_0_1"/>
<feBlend mode="normal" in="SourceGraphic" in2="effect1_dropShadow_0_1" result="shape"/>
</filter>
<filter id="filter1_d_0_1" x="-423.801" y="-116.992" width="436.025" height="650.025" filterUnits="userSpaceOnUse" color-interpolation-filters="sRGB">
<feFlood flood-opacity="0" result="BackgroundImageFix"/>
<feColorMatrix in="SourceAlpha" type="matrix" values="0 0 0 0 0 0 0 0 0 0 0 0 0 0 0 0 0 0 127 0" result="hardAlpha"/>
<feMorphology radius="0.95202" operator="dilate" in="SourceAlpha" result="effect1_dropShadow_0_1"/>
<feOffset dx="5.71212" dy="9.5202"/>
<feGaussianBlur stdDeviation="14.2803"/>
<feComposite in2="hardAlpha" operator="out"/>
<feColorMatrix type="matrix" values="0 0 0 0 0.423529 0 0 0 0 0.372549 0 0 0 0 0.737255 0 0 0 0.12 0"/>
<feBlend mode="normal" in2="BackgroundImageFix" result="effect1_dropShadow_0_1"/>
<feBlend mode="normal" in="SourceGraphic" in2="effect1_dropShadow_0_1" result="shape"/>
</filter>
<clipPath id="clip0_0_1">
<rect width="1440" height="3631" fill="white" transform="translate(-1367 -346)"/>
</clipPath>
<clipPath id="clip1_0_1">
<rect width="34.5688" height="34.5688" fill="white" transform="translate(0 0.336914)"/>
</clipPath>
</defs>
</svg>
