<svg width="23" height="21" viewBox="0 0 23 21" fill="none" xmlns="http://www.w3.org/2000/svg">
<path d="M6.82344 0.0253906C3.33513 0.0253906 0.363281 2.99886 0.363281 6.86065C0.363281 9.52473 1.45755 11.7676 2.90782 13.6256C4.35311 15.4772 6.21775 17.0313 7.90345 18.3321L10.8119 20.5765C11.1304 20.8223 11.5481 20.8223 11.8667 20.5765L14.7751 18.3321C16.4608 17.0313 18.3255 15.4772 19.7708 13.6256C21.221 11.7676 22.3153 9.52473 22.3153 6.86065C22.3153 2.99886 19.3434 0.0253906 15.8551 0.0253906C14.057 0.0253906 12.4747 0.98657 11.3393 2.23026C10.2039 0.98657 8.62159 0.0253906 6.82344 0.0253906Z" fill="#323142"/>
</svg>
