<svg width="51" height="51" viewBox="0 0 51 51" fill="none" xmlns="http://www.w3.org/2000/svg">
<rect width="51" height="51" fill="#1E1E1E"/>
<g clip-path="url(#clip0_0_1)">
<rect x="-926" y="-340" width="1440" height="3631" fill="#F9F9F9"/>
<g filter="url(#filter0_d_0_1)">
<g filter="url(#filter1_d_0_1)">
<rect x="41" y="-91" width="377" height="591" rx="23.8005" fill="white"/>
</g>
</g>
<g clip-path="url(#clip1_0_1)">
<path d="M26.4469 26.3561C20.2745 32.135 12.882 33.3824 12.0607 33.5065C10.7961 33.694 9.53211 33.3853 8.50432 32.6241C7.4762 31.8626 6.80084 30.7484 6.61447 29.4841C6.37978 27.9271 6.92829 26.3494 8.0796 25.2715C8.78708 24.6091 9.66527 24.1846 10.6267 24.0338C10.8288 24.0016 15.8027 23.1678 19.8281 19.399C22.1987 17.1795 23.7676 14.3763 24.4904 11.0691C24.7001 10.1155 25.1818 9.25964 25.8935 8.59333C27.0448 7.51541 28.6515 7.06802 30.1897 7.40462C31.4394 7.67344 32.5064 8.42095 33.1986 9.49694C33.8909 10.5729 34.1193 11.8583 33.8451 13.1043C32.6968 18.3763 30.209 22.8338 26.4469 26.3561Z" fill="#F4A360"/>
<path d="M27.2127 27.175C21.0323 32.9614 13.6461 34.3942 12.228 34.6229C10.6691 34.8558 9.10854 34.4679 7.83737 33.5297C6.56389 32.5897 5.73426 31.2131 5.50275 29.6525C5.21267 27.73 5.8892 25.7866 7.31292 24.4536C8.18377 23.6383 9.26352 23.1072 10.4355 22.9177C10.474 22.9132 15.2419 22.1426 19.0542 18.5734C21.2523 16.5154 22.7094 13.9076 23.3847 10.8223C23.6416 9.64572 24.2417 8.58963 25.1199 7.76741C26.5436 6.43445 28.5273 5.88723 30.4259 6.30312C31.9711 6.64232 33.2912 7.5604 34.1415 8.88808C34.994 10.2182 35.2785 11.8009 34.9424 13.3441C33.7434 18.8423 31.1427 23.4955 27.2127 27.175ZM8.84539 26.0904C7.96823 26.9117 7.5466 28.1169 7.71721 29.3145C8.0149 31.314 9.88465 32.6955 11.8856 32.3957C12.1972 32.3498 19.6108 31.2134 25.6728 25.538C29.2589 22.1805 31.6376 17.9177 32.7425 12.8685C32.953 11.9135 32.7782 10.9328 32.2501 10.1087C31.7213 9.28392 30.9021 8.7146 29.9438 8.5062C28.766 8.25024 27.5368 8.59001 26.6547 9.41585C26.1088 9.92691 25.7368 10.5815 25.5791 11.3089C24.8066 14.8454 23.1279 17.8441 20.5894 20.2208C16.4325 24.1127 11.3536 25.0515 10.788 25.1459C10.0613 25.2557 9.38809 25.5823 8.84539 26.0904Z" fill="#4C2F1B"/>
<path d="M30.102 29.6269C24.669 34.7136 17.6542 37.1887 12.8969 37.8126C11.6289 37.9803 10.3737 37.6417 9.35777 36.8615C8.34217 36.0811 7.69433 34.9562 7.5313 33.6845C7.33424 32.16 7.88532 30.6174 9.00894 29.5654C9.74061 28.8803 10.6538 28.4454 11.6495 28.3151C11.7274 28.302 13.7077 28.0294 16.2806 27.0673C19.1592 25.9911 21.6136 24.5181 23.5723 22.6843C26.4106 20.0269 28.1186 16.6583 28.6428 12.6753C28.7877 11.58 29.3098 10.5587 30.1172 9.8028C31.1686 8.81843 32.5937 8.36106 34.0204 8.54699C35.2851 8.71169 36.4175 9.36046 37.197 10.3771C37.9765 11.3938 38.3103 12.6476 38.1477 13.9166C37.3251 20.1141 34.6192 25.3977 30.102 29.6269Z" fill="#FF6C4A"/>
<path d="M30.8762 30.4545C25.2546 35.7177 17.9797 38.2839 13.046 38.9309C11.4776 39.1347 9.92481 38.7172 8.67348 37.7544C7.42578 36.7949 6.62491 35.4013 6.41784 33.8309C6.17088 31.9496 6.85345 30.0491 8.24316 28.748C9.14802 27.9009 10.2734 27.3665 11.4974 27.2025C11.5138 27.2003 13.4101 26.942 15.8893 26.0182C18.6314 24.993 20.9586 23.5963 22.8062 21.8666C25.4468 19.3943 27.0348 16.2538 27.5258 12.5319C27.7 11.1791 28.3466 9.91835 29.3475 8.98125C30.6496 7.76219 32.4065 7.20115 34.1673 7.44241C35.7293 7.64428 37.1208 8.44682 38.088 9.70189C39.0522 10.9531 39.4684 12.5058 39.2609 14.0732C38.4085 20.5319 35.5877 26.0433 30.8762 30.4545ZM9.77891 30.3883C8.91893 31.1935 8.49517 32.3711 8.6447 33.5385C8.90518 35.5439 10.7479 36.9619 12.7519 36.7006C17.3356 36.1006 24.0992 33.7127 29.3362 28.8096C33.6596 24.7618 36.2473 19.702 37.027 13.77C37.1548 12.8005 36.8979 11.8388 36.3026 11.0632C35.7067 10.2861 34.8437 9.78806 33.8715 9.66105C32.7751 9.52015 31.6861 9.87059 30.8832 10.6222C30.2645 11.2016 29.8637 11.9836 29.7552 12.8247C29.1981 17.0719 27.3766 20.6657 24.3416 23.5072C22.2749 25.4421 19.6956 26.9947 16.6746 28.1219C13.9172 29.1497 11.8233 29.4267 11.8025 29.4291C11.0407 29.5304 10.3409 29.8622 9.77891 30.3883Z" fill="#4C2F1B"/>
<path d="M18.9694 31.6859C18.0982 32.5015 16.9969 31.9584 16.265 31.6018C15.4992 31.2244 15.0976 31.0758 14.9097 31.2518C14.4539 31.6785 13.7422 31.6553 13.3158 31.2C12.8895 30.7446 12.9133 30.0329 13.369 29.6062C14.7002 28.3599 16.2981 29.1053 17.1977 29.5448C17.0896 28.7245 16.9842 27.4658 17.9637 26.5487C18.9509 25.6244 20.2315 25.7822 21.0804 25.8794C21.2346 25.9 21.4389 25.9256 21.5975 25.9349C21.621 25.6881 21.6106 25.308 21.6036 25.0602C21.5787 24.1764 21.5542 23.1727 22.2339 22.5363C22.9414 21.8739 24.0382 21.971 25.0073 22.0609C25.123 22.0721 25.2541 22.0842 25.3896 22.0926C25.3865 22.0654 25.3834 22.0459 25.3764 22.0222C25.2456 21.1778 25.0526 19.8973 25.9638 19.0442C26.6793 18.3743 27.7138 18.4771 28.6244 18.577C28.7135 18.5836 28.8215 18.595 28.9295 18.6063C28.9219 18.5982 28.9225 18.5904 28.9186 18.5862C28.481 17.6544 27.6671 15.9278 28.9864 14.6927C29.4421 14.266 30.1539 14.2891 30.5802 14.7444C31.0065 15.1998 30.9828 15.9115 30.527 16.3382C30.4539 16.5566 30.7938 17.2802 30.9605 17.6262C31.3438 18.4361 31.8684 19.5494 30.993 20.369C30.2932 21.0242 29.2822 20.9217 28.3904 20.8265C28.1397 20.799 27.7501 20.7595 27.5172 20.7673C27.4977 21.003 27.5645 21.4348 27.6025 21.6918C27.7201 22.4506 27.8504 23.3106 27.2028 23.9169C26.5991 24.4821 25.727 24.3994 24.8002 24.3153C24.53 24.2909 24.1281 24.2544 23.8572 24.2616C23.8419 24.4856 23.8546 24.7957 23.8591 25.0092C23.886 25.943 23.9088 27.001 23.1809 27.6824C22.4854 28.3336 21.5555 28.2222 20.8035 28.1316C20.271 28.0681 19.7197 27.9999 19.4999 28.2057C19.3239 28.3705 19.3676 28.8015 19.4445 29.3966C19.5462 30.0744 19.673 31.0271 18.9694 31.6859Z" fill="#F9AF38"/>
<path d="M33.2547 33.8118C27.5101 39.1902 20.8565 41.1622 19.5176 41.3667C18.2523 41.5542 17.1002 41.3734 16.1888 40.8405C15.148 40.2334 14.4664 39.1849 14.2733 37.8895C14.0386 36.3325 14.5871 34.7548 15.7384 33.6769C16.4459 33.0145 17.3237 32.5896 18.2855 32.4385C18.4877 32.4063 23.4615 31.5725 27.4873 27.8034C29.8579 25.5838 31.4268 22.7806 32.1495 19.4735C32.3597 18.5202 32.8413 17.6644 33.553 16.998C34.7046 15.9198 36.3107 15.4724 37.8489 15.809C39.1217 16.0864 40.1107 16.7498 40.7055 17.7218C41.2819 18.6663 41.4441 19.8331 41.1661 21.0983C39.877 26.9668 36.6046 30.6755 33.2547 33.8118Z" fill="#F4A360"/>
<path d="M34.0206 34.6379C27.2403 40.9859 19.7444 42.4694 19.6696 42.4836C18.1584 42.7113 16.7526 42.4809 15.6146 41.8143C14.2709 41.0248 13.3967 39.6906 13.1537 38.0573C12.8637 36.1348 13.5402 34.1914 14.9639 32.8584C15.8386 32.0395 16.9203 31.5112 18.0916 31.3308C18.1339 31.3254 22.9275 30.5288 26.7121 26.9856C28.9102 24.9275 30.367 22.32 31.0426 19.2345C31.2999 18.0582 31.8992 17.0021 32.7774 16.1799C34.2012 14.8469 36.1849 14.2997 38.0834 14.7156C39.6632 15.0586 40.8993 15.8969 41.6576 17.1398C42.3902 18.3403 42.5975 19.7935 42.2574 21.3423C40.9136 27.508 37.5043 31.3762 34.0206 34.6379ZM16.5003 34.4988C15.6221 35.321 15.1991 36.5275 15.3686 37.7261C15.6511 39.6137 17.1722 40.5835 19.3386 40.2595C19.4035 40.2494 26.2679 38.8103 32.4767 32.9973C35.693 29.9861 38.8366 26.4322 40.0556 20.8633C40.2754 19.8641 40.1547 18.965 39.7053 18.2643C39.2704 17.5862 38.5425 17.1201 37.5991 16.9149C36.421 16.6593 35.1917 16.999 34.31 17.8245C33.7645 18.3353 33.3925 18.9898 33.2344 19.7176C32.4619 23.2541 30.7829 26.2531 28.2446 28.6295C24.0846 32.5243 19.0085 33.4605 18.4433 33.5546C17.7162 33.6641 17.0427 33.991 16.5003 34.4988Z" fill="#4C2F1B"/>
<path d="M24.2484 37.3496C24.1324 37.4583 23.9714 37.5189 23.8019 37.4981C23.4937 37.4647 23.27 37.1864 23.3076 36.8738C23.489 35.2723 22.1878 34.4516 22.1345 34.4193C21.8686 34.2555 21.7874 33.9122 21.9475 33.6427C22.1112 33.377 22.4514 33.2912 22.7205 33.4507C22.8041 33.5 24.6977 34.6653 24.4299 36.9996C24.4065 37.1418 24.3441 37.26 24.2484 37.3496ZM31.9288 32.1078C31.857 32.1751 31.7664 32.2224 31.6646 32.25C31.3601 32.3175 31.0608 32.1258 30.9939 31.8217C30.641 30.2031 29.2356 30.0722 29.2242 30.0678C28.9153 30.0421 28.6842 29.7714 28.7101 29.4625C28.7357 29.1533 29.007 28.9223 29.3159 28.948C30.0881 29.0118 31.6707 29.6439 32.0939 31.5786C32.1372 31.7773 32.0687 31.9768 31.9288 32.1078Z" fill="#4C2F1B"/>
<path d="M37.7594 24.5053C37.6953 24.5654 37.6164 24.609 37.5302 24.6371C37.2295 24.7241 36.9215 24.5477 36.8344 24.2467C36.4259 22.8006 34.8636 22.831 34.798 22.8326C34.4881 22.8381 34.2287 22.6012 34.2156 22.2907C34.2025 21.9808 34.4476 21.7212 34.7577 21.7082C35.6266 21.6742 37.4017 22.0959 37.9209 23.9406C37.9764 24.1517 37.9074 24.3668 37.7594 24.5053Z" fill="#4C2F1B"/>
<path d="M39.078 9.2462C38.9742 9.34336 38.8438 9.41282 38.7035 9.44698L37.314 9.77373C36.8882 9.87198 36.4591 9.62234 36.3376 9.20372L35.9524 7.87043C35.8657 7.56976 35.9536 7.25474 36.1815 7.04139C36.4455 6.79423 36.8343 6.74505 37.1458 6.92531L38.9211 7.93187C39.1494 8.06325 39.3005 8.28857 39.3342 8.54947C39.3637 8.8065 39.2697 9.06666 39.078 9.2462Z" fill="#FF6C4A"/>
<path d="M36.5628 7.44895C36.6388 7.37772 36.7556 7.3506 36.8659 7.41226L38.6409 8.41847C38.8041 8.51276 38.8128 8.72224 38.6929 8.8345C38.661 8.86437 38.6215 8.88618 38.5749 8.90029L37.1854 9.22704C37.0489 9.25759 36.916 9.17957 36.8775 9.05063L36.4923 7.70952C36.4644 7.60809 36.4948 7.51262 36.5628 7.44895ZM35.7924 6.62616C35.4085 6.98557 35.263 7.51881 35.4048 8.02299L35.7903 9.35595C35.9953 10.0632 36.7206 10.4859 37.4388 10.3156L38.8282 9.98885C39.0662 9.93103 39.2833 9.81786 39.4593 9.65308C39.7794 9.35341 39.9412 8.90935 39.8858 8.47419C39.8343 8.04256 39.5723 7.65096 39.1922 7.43688L37.417 6.43032C36.8929 6.13481 36.2363 6.21062 35.7924 6.62616Z" fill="#4C2F1B"/>
<path d="M7.20206 36.9466C7.01029 37.1261 6.74452 37.2027 6.4864 37.1519C6.22863 37.1007 6.01734 36.939 5.89731 36.6991L5.00971 34.8614C4.85418 34.5351 4.92498 34.1539 5.19282 33.9032C5.4207 33.6898 5.74051 33.6224 6.03514 33.7291L7.34021 34.2012C7.74925 34.3499 7.97112 34.7949 7.84475 35.213L7.42731 36.5779C7.38372 36.7239 7.30618 36.8491 7.20206 36.9466Z" fill="#FF6C4A"/>
<path d="M5.57787 34.3225C5.64588 34.2588 5.73953 34.231 5.84287 34.269L7.14759 34.7413C7.27372 34.7882 7.34643 34.9298 7.30336 35.0602L6.88592 36.4251C6.8691 36.4711 6.84441 36.5087 6.81251 36.5386C6.69261 36.6508 6.48414 36.6284 6.4008 36.4593L5.51321 34.6217C5.46671 34.5088 5.50179 34.3937 5.57787 34.3225ZM4.80754 33.4997C4.3637 33.9153 4.23738 34.566 4.50532 35.1164L5.39292 36.954C5.58514 37.3511 5.95505 37.6345 6.38236 37.7143C6.81746 37.7946 7.26702 37.6656 7.58675 37.3662C7.76274 37.2015 7.89379 36.9894 7.9633 36.7587L8.38075 35.3937C8.59755 34.6879 8.22424 33.9364 7.52743 33.6889L6.22271 33.2166C5.73307 33.0302 5.19143 33.1403 4.80754 33.4997Z" fill="#4C2F1B"/>
</g>
</g>
<defs>
<filter id="filter0_d_0_1" x="-9" y="-126" width="497" height="711" filterUnits="userSpaceOnUse" color-interpolation-filters="sRGB">
<feFlood flood-opacity="0" result="BackgroundImageFix"/>
<feColorMatrix in="SourceAlpha" type="matrix" values="0 0 0 0 0 0 0 0 0 0 0 0 0 0 0 0 0 0 127 0" result="hardAlpha"/>
<feOffset dx="10" dy="25"/>
<feGaussianBlur stdDeviation="30"/>
<feComposite in2="hardAlpha" operator="out"/>
<feColorMatrix type="matrix" values="0 0 0 0 0 0 0 0 0 0.352941 0 0 0 0 0.392157 0 0 0 0.2 0"/>
<feBlend mode="normal" in2="BackgroundImageFix" result="effect1_dropShadow_0_1"/>
<feBlend mode="normal" in="SourceGraphic" in2="effect1_dropShadow_0_1" result="shape"/>
</filter>
<filter id="filter1_d_0_1" x="17.1995" y="-110.992" width="436.025" height="650.025" filterUnits="userSpaceOnUse" color-interpolation-filters="sRGB">
<feFlood flood-opacity="0" result="BackgroundImageFix"/>
<feColorMatrix in="SourceAlpha" type="matrix" values="0 0 0 0 0 0 0 0 0 0 0 0 0 0 0 0 0 0 127 0" result="hardAlpha"/>
<feMorphology radius="0.95202" operator="dilate" in="SourceAlpha" result="effect1_dropShadow_0_1"/>
<feOffset dx="5.71212" dy="9.5202"/>
<feGaussianBlur stdDeviation="14.2803"/>
<feComposite in2="hardAlpha" operator="out"/>
<feColorMatrix type="matrix" values="0 0 0 0 0.423529 0 0 0 0 0.372549 0 0 0 0 0.737255 0 0 0 0.12 0"/>
<feBlend mode="normal" in2="BackgroundImageFix" result="effect1_dropShadow_0_1"/>
<feBlend mode="normal" in="SourceGraphic" in2="effect1_dropShadow_0_1" result="shape"/>
</filter>
<clipPath id="clip0_0_1">
<rect width="1440" height="3631" fill="white" transform="translate(-926 -340)"/>
</clipPath>
<clipPath id="clip1_0_1">
<rect width="44.9726" height="25.6986" fill="white" transform="translate(0 31.2861) rotate(-43.1142)"/>
</clipPath>
</defs>
</svg>
