<svg width="23" height="42" viewBox="0 0 23 42" fill="none" xmlns="http://www.w3.org/2000/svg">
<rect width="23" height="42" fill="#1E1E1E"/>
<g clip-path="url(#clip0_0_1)">
<rect x="-1372" y="-345" width="1440" height="3631" fill="#F9F9F9"/>
<g filter="url(#filter0_d_0_1)">
<g filter="url(#filter1_d_0_1)">
<rect x="-405" y="-96" width="377" height="591" rx="23.8005" fill="white"/>
</g>
</g>
<g clip-path="url(#clip1_0_1)">
<path d="M4.69785 16.5163C4.69785 16.5163 2.02181 11.7037 8.11141 8.79233C14.2015 5.88099 13.0018 2.89934 12.9559 1.06836C12.9559 1.06836 18.0767 2.85263 18.0767 8.18185C18.0767 14.356 4.69785 16.5163 4.69785 16.5163Z" fill="white"/>
<path d="M14.2936 3.08785C14.2936 3.08785 15.6314 7.97123 13.0249 9.77863C10.4184 11.5865 6.65811 12.1262 5.27441 14.2629C5.27441 14.2629 7.23521 15.2725 10.3493 14.4742C13.4634 13.676 18.0766 8.93366 18.0766 8.93366C18.0766 8.93366 20.0606 1.37388 14.2936 3.08785Z" fill="#5A85FF"/>
<path d="M14.3397 3.22793C14.3397 3.22793 16.7849 6.35063 16.2083 8.43968C15.6316 10.5292 13.0251 11.8908 12.633 11.9846C12.2408 12.0785 6.61243 13.2995 5.29736 14.2619C5.29736 14.2619 11.4792 14.2147 13.2096 13.2523C14.9627 12.2899 18.7226 9.75407 17.8692 7.73532C17.0158 5.71656 16.2315 2.21833 14.3397 3.22793Z" fill="#507BE1"/>
<path d="M4.91347 17.5141C4.82211 17.4951 4.7615 17.4951 4.69778 17.4951C4.35152 17.4951 4.03334 17.3087 3.86756 17.0084C3.66524 16.6134 2.70891 14.5661 3.42549 12.2947C4.0066 10.4741 5.45491 8.99827 7.72899 7.90929C12.4456 5.67873 12.2549 3.68039 12.0864 1.91744C12.0632 1.61265 12.0401 1.35322 12.0169 1.09379C12.0178 0.795806 12.1639 0.490566 12.409 0.298714C12.5726 0.180337 12.7762 0.112305 12.9763 0.112305C13.0837 0.112305 13.1885 0.131354 13.2874 0.168999C14.2749 0.551342 19.061 2.6862 19.061 8.22905C19.061 15.0568 5.94199 17.3454 4.91347 17.5141ZM14.0557 3.1715C13.9772 5.02335 13.2803 7.43579 8.54182 9.67633C6.76775 10.5304 5.66258 11.6057 5.25571 12.8734C4.98076 13.7633 5.0886 14.6246 5.22764 15.191L5.2829 15.416L5.50616 15.3702C6.69467 15.1253 17.1158 12.8435 17.1158 8.18324C17.1158 5.53677 15.6577 3.89673 14.4345 2.98646L14.0748 2.71886L14.0557 3.1715Z" fill="#4C2F1B"/>
<path d="M2.32134 23.2306C2.32134 23.2306 -0.700511 18.0184 5.75852 15.4364C11.8945 12.9713 13.3245 15.3892 17.7305 9.77832C18.3535 10.9285 20.5906 14.1215 17.4769 18.1359C16.1155 19.897 5.52768 23.3245 2.32134 23.2306Z" fill="white"/>
<path d="M17.5001 11.3281C17.5001 11.3281 18.4693 16.1176 9.98042 16.7984C4.3057 17.2447 2.22949 21.7054 2.22949 21.7054L15.3084 19.3809L19.0914 15.601L17.5001 11.3281Z" fill="#FF5C68"/>
<path d="M8.15768 40.3221C7.58103 40.3221 7.07345 39.8994 6.9812 39.3125L5.68931 31.4947C5.62023 31.1427 5.73565 30.7672 5.96649 30.5086C6.19689 30.227 6.51997 30.0859 6.88896 30.0859H14.8012C15.147 30.0859 15.4933 30.2501 15.7237 30.5086C15.9545 30.7908 16.0468 31.1427 16.0009 31.4947L14.709 39.3125C14.6167 39.8994 14.1091 40.3221 13.5325 40.3221H8.15768Z" fill="#FFCD8A"/>
<path d="M8.15764 41.3001C7.10238 41.3001 6.18214 40.5095 6.01726 39.4618L4.72492 31.6417C4.61975 30.9777 4.7931 30.3223 5.20041 29.8456C5.62688 29.3467 6.23383 29.0605 6.86574 29.0605H14.778C15.4103 29.0605 16.0173 29.3467 16.4433 29.8456C16.8497 30.3423 17.0244 30.9981 16.9188 31.6422L15.6269 39.4596C15.4384 40.5245 14.5378 41.2996 13.4861 41.2996H8.15764V41.3001ZM7.95577 39.3199H13.6875L15.0596 31.0172H6.58366L7.95577 39.3199Z" fill="#4C2F1B"/>
<path d="M17.1107 33.4478L10.9056 33.793H10.7604L4.55535 33.4474C3.94929 33.4229 3.41586 32.9539 3.31916 32.3371L2.27727 26.787C2.13199 25.9484 2.76212 25.1592 3.5861 25.1592H18.0804C18.9289 25.1592 19.559 25.9484 19.3892 26.787L18.3473 32.3375C18.2256 32.9544 17.7167 33.3984 17.1107 33.4478Z" fill="#FFCD8A"/>
<path d="M1.16846 28.4217L1.72951 27.6181L11.6386 34.7855L11.0776 35.5892L1.16846 28.4217ZM4.42114 27.7138L4.9822 26.9101L14.8909 34.0775L14.3298 34.8812L4.42114 27.7138ZM8.13997 27.1128L8.70147 26.3091L18.6102 33.4766L18.0491 34.2803L8.13997 27.1128ZM10.7215 25.5381L11.2826 24.7344L19.8753 30.9498L19.3138 31.7535L10.7215 25.5381Z" fill="#FFBB71"/>
<path d="M9.41684 34.7991L19.3269 27.633L19.8879 28.4372L9.97789 35.6033L9.41684 34.7991ZM6.17574 34.0675L18.436 25.2015L18.9971 26.0057L6.73679 34.8712L6.17574 34.0675ZM2.42126 33.4825L12.3308 26.3164L12.8919 27.12L2.98232 34.2862L2.42126 33.4825ZM1.16992 30.9616L9.76354 24.7471L10.3246 25.5512L1.73098 31.7658L1.16992 30.9616Z" fill="#FFBB71"/>
<path d="M10.6035 35.76L4.7113 35.432C3.13643 35.3663 1.82448 34.2011 1.51833 32.5992L0.526793 27.3176C0.334279 26.317 0.602551 25.2684 1.26209 24.4407C1.93634 23.6216 2.87885 23.1689 3.91406 23.1689H17.7319C18.7568 23.1689 19.7207 23.642 20.3094 24.4344C20.9801 25.2272 21.2461 26.274 21.0496 27.3176L20.0576 32.6001C19.7559 34.1793 18.4431 35.3441 16.8647 35.432L10.9658 35.76H10.6035ZM3.93679 25.1251C3.49918 25.1251 3.08385 25.3247 2.79641 25.6735C2.50096 26.0322 2.37707 26.5007 2.45639 26.9593L3.44927 32.2445C3.55666 32.928 4.15961 33.47 4.85034 33.4981L10.7519 33.8265L10.9034 33.8269L16.8219 33.4977C17.5131 33.4414 18.0852 32.9271 18.2189 32.2463L19.2109 26.9624C19.3018 26.5139 19.1895 26.049 18.9025 25.6907C18.6147 25.3315 18.1877 25.1251 17.7314 25.1251H3.93679Z" fill="#4C2F1B"/>
<path d="M17.5233 11.9854C17.5233 11.9854 18.054 15.4364 15.8397 17.0329C13.1177 19.4277 5.32092 19.146 3.3833 20.6718C3.3833 20.6718 15.6088 20.9303 17.0389 17.3613C18.4689 13.7928 18.9302 12.1495 17.5233 11.9854Z" fill="#F93D53"/>
<path d="M2.2986 24.2332C1.97596 24.2332 1.67962 24.0523 1.48576 23.7366C1.46304 23.7021 0.0615155 21.2534 0.932286 18.6614C1.52944 16.8603 3.02721 15.4725 5.38373 14.5359C7.7349 13.6066 9.4702 13.3748 10.8641 13.1884C13.2478 12.8763 14.5589 12.7044 17.132 9.43706C17.3107 9.20575 17.5727 9.07422 17.8521 9.07422C17.8869 9.07422 17.9217 9.07603 17.956 9.08057C18.288 9.10098 18.5741 9.29283 18.7167 9.5822C18.751 9.63798 18.771 9.67427 18.7911 9.7101C18.8174 9.75681 18.8441 9.80307 18.87 9.84344C19.5981 11.102 21.5509 14.4751 18.2354 18.7621C16.5482 20.9368 5.77099 24.2337 2.41402 24.2337H2.2986V24.2332ZM17.4662 12.0296C15.0308 14.6239 13.2211 14.8565 11.1266 15.1259C9.644 15.3051 8.14132 15.5346 6.08605 16.3619C4.28257 17.0717 3.15689 18.0613 2.74201 19.3031C2.46081 20.1041 2.49112 21.0421 2.83381 22.0875L2.89352 22.2703L3.08203 22.2526C6.78837 21.9034 15.6939 18.8342 16.6948 17.5611C18.6102 15.0656 18.2786 13.2569 17.8624 12.113L17.73 11.7493L17.4662 12.0296Z" fill="#4C2F1B"/>
<path d="M18.6762 16.3047C18.6762 16.3047 17.2921 19.4505 11.8714 20.554C7.51173 21.4226 0.983622 20.8592 0.960449 25.1321C0.960449 29.1937 17.5688 28.4893 19.6219 24.8269C22.5978 19.4977 18.6762 16.3047 18.6762 16.3047Z" fill="white"/>
<path d="M2.09131 25.1559C4.69783 22.7145 11.5717 24.2171 13.9938 23.3245C17.2692 22.1035 18.6765 21.7044 18.9532 18.042C18.9532 18.042 23.1516 22.9957 17.7768 26.3293C14.6627 28.2079 3.95941 29.5459 2.09131 25.1559Z" fill="#FFF383"/>
<path d="M18.9992 18.0195C18.9992 18.0195 23.7283 27.9033 3.38281 26.0959C3.40599 26.0955 25.9658 30.2037 18.9992 18.0195Z" fill="#F6E259"/>
<path d="M8.20458 28.7635C5.86901 28.7635 3.92738 28.5004 2.58869 28.0033C0.893498 27.411 0 26.4186 0 25.1324C0 20.9996 4.63237 20.464 8.35432 20.0331L8.46171 20.0204C9.75807 19.8889 10.8071 19.7419 11.6636 19.5714C16.2322 18.6461 18.0335 16.1371 18.1886 15.7371L18.1685 15.8146C18.3143 15.5556 18.5522 15.3806 18.8388 15.3221C18.8905 15.3112 18.9435 15.3066 18.9961 15.3066C19.2158 15.3066 19.4471 15.396 19.6311 15.5525C21.3615 17.0655 23.7394 21.0799 20.3357 25.4272C18.6864 27.5951 12.8552 28.7635 8.20458 28.7635ZM18.8989 18.0366C17.7452 19.2348 15.6222 20.8105 12.0575 21.5135C10.9804 21.7276 9.7496 21.8695 8.68765 21.9797C4.6141 22.4401 1.9452 22.9082 1.9452 25.1319C1.9452 25.595 2.76739 25.9592 3.25759 26.1356C4.44788 26.561 6.12213 26.786 8.09986 26.786C12.2501 26.786 17.7006 25.7252 18.8864 24.2026C20.9765 21.4999 20.021 19.1999 19.2657 18.0697L19.1021 17.8248L18.8989 18.0366Z" fill="#4C2F1B"/>
</g>
</g>
<defs>
<filter id="filter0_d_0_1" x="-455" y="-131" width="497" height="711" filterUnits="userSpaceOnUse" color-interpolation-filters="sRGB">
<feFlood flood-opacity="0" result="BackgroundImageFix"/>
<feColorMatrix in="SourceAlpha" type="matrix" values="0 0 0 0 0 0 0 0 0 0 0 0 0 0 0 0 0 0 127 0" result="hardAlpha"/>
<feOffset dx="10" dy="25"/>
<feGaussianBlur stdDeviation="30"/>
<feComposite in2="hardAlpha" operator="out"/>
<feColorMatrix type="matrix" values="0 0 0 0 0 0 0 0 0 0.352941 0 0 0 0 0.392157 0 0 0 0.2 0"/>
<feBlend mode="normal" in2="BackgroundImageFix" result="effect1_dropShadow_0_1"/>
<feBlend mode="normal" in="SourceGraphic" in2="effect1_dropShadow_0_1" result="shape"/>
</filter>
<filter id="filter1_d_0_1" x="-428.801" y="-115.992" width="436.025" height="650.025" filterUnits="userSpaceOnUse" color-interpolation-filters="sRGB">
<feFlood flood-opacity="0" result="BackgroundImageFix"/>
<feColorMatrix in="SourceAlpha" type="matrix" values="0 0 0 0 0 0 0 0 0 0 0 0 0 0 0 0 0 0 127 0" result="hardAlpha"/>
<feMorphology radius="0.95202" operator="dilate" in="SourceAlpha" result="effect1_dropShadow_0_1"/>
<feOffset dx="5.71212" dy="9.5202"/>
<feGaussianBlur stdDeviation="14.2803"/>
<feComposite in2="hardAlpha" operator="out"/>
<feColorMatrix type="matrix" values="0 0 0 0 0.423529 0 0 0 0 0.372549 0 0 0 0 0.737255 0 0 0 0.12 0"/>
<feBlend mode="normal" in2="BackgroundImageFix" result="effect1_dropShadow_0_1"/>
<feBlend mode="normal" in="SourceGraphic" in2="effect1_dropShadow_0_1" result="shape"/>
</filter>
<clipPath id="clip0_0_1">
<rect width="1440" height="3631" fill="white" transform="translate(-1372 -345)"/>
</clipPath>
<clipPath id="clip1_0_1">
<rect width="22.0652" height="41.1883" fill="white" transform="translate(0 0.112305)"/>
</clipPath>
</defs>
</svg>
