<svg width="19" height="24" viewBox="0 0 19 24" fill="none" xmlns="http://www.w3.org/2000/svg">
<path d="M7.79717 16.8853C7.79717 15.8691 8.62103 15.0452 9.63731 15.0452C10.6536 15.0452 11.4774 15.8691 11.4774 16.8853C11.4774 17.9016 10.6536 18.7255 9.63731 18.7255C8.62103 18.7255 7.79717 17.9016 7.79717 16.8853Z" fill="#C2C3CB"/>
<path fill-rule="evenodd" clip-rule="evenodd" d="M4.26612 10.2573L3.87915 6.77458C3.82953 6.32807 3.82953 5.87743 3.87915 5.43091L3.90708 5.17955C4.20332 2.51332 6.29937 0.403714 8.96363 0.0902712C9.41119 0.0376179 9.86337 0.0376179 10.3109 0.0902712C12.9752 0.403714 15.0712 2.51333 15.3675 5.17956L15.3954 5.43091C15.445 5.87743 15.445 6.32806 15.3954 6.77458L15.0084 10.2573L15.8507 10.3246C17.179 10.4306 18.2636 11.4291 18.4789 12.744C18.928 15.4866 18.928 18.284 18.4789 21.0266C18.2636 22.3416 17.179 23.3401 15.8507 23.4461L14.0153 23.5926C11.1013 23.8253 8.17337 23.8253 5.25934 23.5926L3.42395 23.4461C2.0957 23.3401 1.01111 22.3416 0.795796 21.0266C0.346714 18.284 0.346714 15.4866 0.795796 12.744C1.01111 11.4291 2.0957 10.4306 3.42395 10.3246L4.26612 10.2573ZM9.17864 1.91781C9.48335 1.88196 9.79121 1.88196 10.0959 1.91781C11.9098 2.13121 13.3369 3.56751 13.5386 5.38277L13.5665 5.63412C13.6011 5.94558 13.6011 6.25991 13.5665 6.57137L13.1725 10.1173C10.8181 9.96566 8.45642 9.96566 6.10202 10.1173L5.70803 6.57137C5.67343 6.25991 5.67343 5.94558 5.70803 5.63412L5.73596 5.38276C5.93766 3.56751 7.36472 2.13121 9.17864 1.91781ZM13.8689 12.0123C11.0523 11.7875 8.22234 11.7875 5.40578 12.0123L3.57038 12.1589C3.0859 12.1975 2.69029 12.5617 2.61176 13.0414C2.19492 15.5871 2.19492 18.1836 2.61176 20.7293C2.69029 21.2089 3.0859 21.5731 3.57038 21.6118L5.40578 21.7583C8.22234 21.9832 11.0523 21.9832 13.8689 21.7583L15.7043 21.6118C16.1888 21.5731 16.5844 21.2089 16.6629 20.7293C17.0798 18.1836 17.0798 15.5871 16.6629 13.0414C16.5844 12.5617 16.1888 12.1975 15.7043 12.1589L13.8689 12.0123Z" fill="#C2C3CB"/>
</svg>
