<svg width="35" height="35" viewBox="0 0 35 35" fill="none" xmlns="http://www.w3.org/2000/svg">
<rect width="35" height="35" fill="#1E1E1E"/>
<g clip-path="url(#clip0_0_1)">
<rect x="-923" y="-366" width="1440" height="3631" fill="#F9F9F9"/>
<g filter="url(#filter0_d_0_1)">
<g filter="url(#filter1_d_0_1)">
<rect x="44" y="-117" width="377" height="591" rx="23.8005" fill="white"/>
</g>
</g>
<g clip-path="url(#clip1_0_1)">
<path d="M0.950684 20.3994V24.2769H31.6815C32.5454 24.2769 33.2045 20.3311 33.2045 20.3311L0.950684 20.3994Z" fill="#F2C05A"/>
<path d="M0.950326 25.2257C0.417739 25.2257 0 24.8089 0 24.2772V20.3993C0 19.8765 0.426304 19.4512 0.950326 19.4512L33.2272 19.3828C33.4954 19.3828 33.773 19.5098 33.9342 19.7064C34.1195 19.9281 34.1907 20.1977 34.1366 20.4673C33.349 25.2257 32.1542 25.2257 31.7045 25.2257H0.950326ZM31.4157 23.3516L31.4795 23.2238C31.6236 22.9364 31.7898 22.4264 32.0187 21.57L32.0966 21.279L1.92362 21.3482V23.3516H2.15488H31.4157Z" fill="#4C2F1B"/>
<path d="M24.9306 1.21454C24.2715 0.874291 23.4532 0.965179 22.9077 1.46429L0.973145 20.3998H5.06488V31.3076C5.06488 32.6002 6.1102 33.6431 7.40585 33.6431C8.70151 33.6431 9.74683 32.6002 9.74683 31.3076V20.3998H12.1789V25.5474C12.1789 26.8626 13.2698 27.9513 14.5884 27.9513C15.9066 27.9513 16.9979 26.863 16.9979 25.5474V20.3998H20.4757C20.8167 21.6924 21.9761 22.6448 23.3625 22.6448C24.7492 22.6448 25.9308 21.6924 26.2493 20.3998L33.25 20.3773C35.4543 7.83659 27.9081 2.71148 24.9306 1.21454Z" fill="#FFDE8A"/>
<path d="M17.7024 9.46864C19.0432 9.46864 20.1119 8.40283 20.1119 7.06475C20.1119 6.13489 19.589 5.36389 18.8388 4.95605L15.4521 7.88119C15.7932 8.81105 16.6567 9.46864 17.7024 9.46864Z" fill="#FF5C5C"/>
<path d="M17.7025 9.94472C16.4975 9.94472 15.4067 9.17372 14.9975 8.03994C14.9294 7.85855 14.9745 7.65464 15.1338 7.51869L18.5204 4.59316C18.6567 4.45722 18.8841 4.4343 19.0429 4.52519C19.9975 5.0243 20.5659 5.99922 20.5659 7.0425C20.5893 8.65208 19.2936 9.94472 17.7025 9.94472ZM16.0202 8.01741C16.3613 8.62994 16.9978 9.01525 17.7025 9.01525C18.7708 9.01525 19.6347 8.15375 19.6347 7.08755C19.6347 6.47541 19.3392 5.90833 18.8615 5.54555L16.0202 8.01741Z" fill="#4C2F1B"/>
<path d="M25.6807 11.5324C25.4078 12.6891 26.158 13.8683 27.317 14.1177C28.1353 14.2991 28.9307 14.0043 29.431 13.4147L27.5217 9.85449C26.6353 9.96791 25.8851 10.6026 25.6807 11.5324Z" fill="#FF5C5C"/>
<path d="M27.7944 14.64C27.6126 14.64 27.4082 14.6174 27.2264 14.572C25.8171 14.2547 24.908 12.8486 25.2261 11.42C25.4761 10.3542 26.3625 9.53777 27.4764 9.40183C27.6582 9.3793 27.863 9.4698 27.9537 9.65119L29.8629 13.1889C29.954 13.3702 29.931 13.5742 29.7948 13.7105C29.2719 14.2997 28.5447 14.64 27.7944 14.64ZM26.1352 11.6239C26.0441 12.0776 26.1126 12.5309 26.3621 12.8937C26.6125 13.279 26.9761 13.5512 27.4304 13.6421C27.9307 13.7555 28.4532 13.6196 28.8623 13.3019L27.2942 10.3767C26.7036 10.5807 26.2714 11.0339 26.1352 11.6239Z" fill="#4C2F1B"/>
<path d="M7.38278 34.5689C5.56778 34.5689 4.0907 33.0956 4.0907 31.2845V21.3252H0.950073C0.545182 21.3252 0.202971 21.0848 0.0783892 20.7123C-0.0711091 20.3374 0.0386787 19.9242 0.347019 19.6705L22.2859 0.731525C22.7943 0.298833 23.4391 0.0595703 24.1005 0.0595703C24.5361 0.0595703 24.9562 0.159004 25.3494 0.355541C28.0132 1.69518 36.5221 7.10577 34.1582 20.473C34.0861 20.9216 33.6859 21.2572 33.2265 21.2572L26.8798 21.2805L26.8156 21.4048C26.1386 22.7126 24.8063 23.5251 23.339 23.5251C21.872 23.5251 20.5398 22.713 19.8624 21.4048L19.7974 21.2797H17.9251V25.4793C17.9251 27.3153 16.4282 28.8087 14.5879 28.8087C12.7476 28.8087 11.251 27.3153 11.251 25.4796V21.2801H10.697V31.2394C10.676 33.0743 9.18922 34.5689 7.38278 34.5689ZM24.0771 1.95774C23.863 1.95774 23.6649 2.0331 23.5037 2.17603L3.48843 19.4515H5.04142C5.30499 19.4515 5.53469 19.5451 5.68769 19.7152C5.87495 19.9024 5.96917 20.1362 5.96917 20.4V31.3078C5.96917 32.0854 6.60337 32.7181 7.38239 32.7181C8.17504 32.7181 8.79562 32.0986 8.79562 31.3078V20.3996C8.79562 19.8768 9.22192 19.4515 9.74594 19.4515H12.178C12.4412 19.4515 12.6709 19.5451 12.8243 19.7152C13.0115 19.9024 13.1058 20.1362 13.1058 20.4V25.5476C13.1058 26.3501 13.7602 27.003 14.5645 27.003C15.3689 27.003 16.0233 26.3501 16.0233 25.5476V20.3771C16.0233 19.8539 16.4496 19.4286 16.9736 19.4286H20.4514C20.8859 19.4286 21.2526 19.7148 21.364 20.1405C21.5964 21.0432 22.4085 21.674 23.3382 21.674C24.2679 21.674 25.08 21.0432 25.3125 20.1401C25.4238 19.7152 25.7905 19.4289 26.2246 19.4289L32.4269 19.4056L32.4545 19.2076C34.0028 8.14944 27.4004 3.52654 24.4898 2.05213C24.3489 1.98804 24.213 1.95774 24.0771 1.95774Z" fill="#4C2F1B"/>
<path d="M33.2268 20.3308C35.5001 7.56365 27.5899 2.50652 24.7487 1.12338C24.1803 0.851102 23.4982 0.94199 23.0209 1.35021L21.2935 2.84716C25.0667 5.65888 31.4083 10.8523 29.4761 20.3541L33.2268 20.3308Z" fill="#FFB07B"/>
<path d="M29.4768 21.28C29.2008 21.28 28.9271 21.1499 28.7457 20.932C28.5647 20.7156 28.4895 20.4235 28.5444 20.1497C30.2084 11.9425 25.5151 7.17399 20.7051 3.59204C20.4777 3.43474 20.3399 3.16828 20.3201 2.85561C20.3025 2.57362 20.4213 2.30445 20.6463 2.11763L22.3772 0.617577C22.8393 0.219453 23.4237 0 24.0225 0C24.4032 0 24.7828 0.091277 25.1211 0.263732C27.8417 1.58744 36.518 6.9522 34.1132 20.4954C34.0412 20.9444 33.641 21.28 33.182 21.28H29.4768V21.28ZM24.0357 1.89817C23.8788 1.89817 23.7246 1.95488 23.6005 2.0582L22.7743 2.79036L22.9923 2.96087C25.1725 4.66911 31.8073 9.86763 30.6109 19.1227L30.5774 19.383H32.4061L32.4337 19.1841C34.0108 7.91508 27.2733 3.38424 24.3036 1.95915C24.2245 1.91993 24.1311 1.89817 24.0357 1.89817Z" fill="#4C2F1B"/>
<path d="M29.4766 20.3311C29.4766 20.3311 29.2719 22.8254 28.3628 24.2769H31.7039C31.7039 24.2769 32.8859 23.6419 33.2269 20.3311H29.4766Z" fill="#E2803D"/>
<path d="M28.3627 25.2253C28.0127 25.2253 27.7071 25.0423 27.5443 24.7359C27.3742 24.4333 27.3808 24.0717 27.5587 23.787C28.2132 22.7235 28.4826 20.8354 28.5254 20.2575C28.5608 19.7793 28.9688 19.4053 29.4539 19.4053H33.2042C33.4826 19.4053 33.7318 19.5148 33.8891 19.7063C34.0872 19.9242 34.1694 20.1736 34.1339 20.4365C33.7485 24.0806 32.3875 24.974 32.1184 25.1161C32.0094 25.1872 31.8549 25.2253 31.7038 25.2253H28.3627V25.2253ZM30.2949 21.465C30.2049 21.914 30.0928 22.473 29.9145 23.0525L29.8226 23.3512H31.3472L31.4165 23.2525C31.573 23.0292 31.8689 22.5126 32.0888 21.5621L32.1543 21.2794H30.3322L30.2949 21.465Z" fill="#4C2F1B"/>
<path d="M11.4287 15.5919C11.4287 16.4561 12.1307 17.1564 12.9969 17.1564C13.8631 17.1564 14.5651 16.4561 14.5651 15.5919C14.5651 14.7277 13.8631 14.0273 12.9969 14.0273C12.1307 14.0273 11.4287 14.7277 11.4287 15.5919Z" fill="#FF5C5C"/>
<path d="M12.997 17.6326C11.8832 17.6326 10.9512 16.7257 10.9512 15.5919C10.9512 14.4581 11.8602 13.5508 12.997 13.5508C14.1335 13.5508 15.0425 14.4577 15.0425 15.5919C15.0425 16.7253 14.1335 17.6326 12.997 17.6326ZM12.997 14.5032C12.3835 14.5032 11.9062 15.0023 11.9062 15.5915C11.9062 16.1811 12.4061 16.6798 12.997 16.6798C13.588 16.6798 14.0879 16.1807 14.0879 15.5915C14.0879 15.0019 13.6106 14.5032 12.997 14.5032Z" fill="#4C2F1B"/>
<path d="M20.7254 17.1565H17.4294C17.2476 17.1565 17.0884 16.9977 17.0884 16.8163V16.0678C17.0884 15.8864 17.2476 15.7275 17.4294 15.7275H20.7254C20.9072 15.7275 21.0664 15.8864 21.0664 16.0678V16.8163C21.089 16.9977 20.9298 17.1565 20.7254 17.1565Z" fill="#3DE25C"/>
<path d="M20.362 17.6329H17.8162C17.1571 17.6329 16.6343 17.1112 16.6343 16.4536C16.6343 15.7961 17.1571 15.2744 17.8162 15.2744H20.362C21.0211 15.2744 21.544 15.7961 21.544 16.4536C21.544 17.1112 21.0211 17.6329 20.362 17.6329ZM17.8162 16.2039C17.68 16.2039 17.5663 16.3173 17.5663 16.4532C17.5663 16.5896 17.68 16.703 17.8162 16.703H20.362C20.4983 16.703 20.6119 16.5896 20.6119 16.4532C20.6119 16.3173 20.4983 16.2039 20.362 16.2039H17.8162Z" fill="#4C2F1B"/>
<path d="M22.9982 13.7324L21.2479 11.8277C21.1797 11.7597 21.1797 11.6463 21.2479 11.5783L22.0433 10.8527C22.1114 10.7848 22.2251 10.7848 22.2936 10.8527L24.044 12.7575C24.1121 12.8255 24.1121 12.9389 24.044 13.0069L23.2486 13.7324C23.2026 13.8008 23.0664 13.8008 22.9982 13.7324Z" fill="#3DE25C"/>
<path d="M23.158 14.1854H23.1128C22.8855 14.1854 22.6807 14.072 22.5218 13.9131L21.0218 12.3031C20.8626 12.1443 20.7944 11.9178 20.7944 11.691C20.7944 11.4646 20.9081 11.2603 21.0673 11.1014L21.5672 10.6477C21.7265 10.4889 21.9538 10.4209 22.1812 10.4209C22.4085 10.4209 22.6129 10.5343 22.7722 10.6932L24.2722 12.3031C24.4314 12.462 24.4996 12.6888 24.4996 12.9157C24.4996 13.1425 24.3859 13.3464 24.2267 13.5053L23.7268 13.959C23.5672 14.0945 23.3624 14.1854 23.158 14.1854ZM21.7942 11.7135L23.158 13.1876L23.5216 12.8473L22.1578 11.3733L21.7942 11.7135Z" fill="#4C2F1B"/>
</g>
</g>
<defs>
<filter id="filter0_d_0_1" x="-6" y="-152" width="497" height="711" filterUnits="userSpaceOnUse" color-interpolation-filters="sRGB">
<feFlood flood-opacity="0" result="BackgroundImageFix"/>
<feColorMatrix in="SourceAlpha" type="matrix" values="0 0 0 0 0 0 0 0 0 0 0 0 0 0 0 0 0 0 127 0" result="hardAlpha"/>
<feOffset dx="10" dy="25"/>
<feGaussianBlur stdDeviation="30"/>
<feComposite in2="hardAlpha" operator="out"/>
<feColorMatrix type="matrix" values="0 0 0 0 0 0 0 0 0 0.352941 0 0 0 0 0.392157 0 0 0 0.2 0"/>
<feBlend mode="normal" in2="BackgroundImageFix" result="effect1_dropShadow_0_1"/>
<feBlend mode="normal" in="SourceGraphic" in2="effect1_dropShadow_0_1" result="shape"/>
</filter>
<filter id="filter1_d_0_1" x="20.1995" y="-136.992" width="436.025" height="650.025" filterUnits="userSpaceOnUse" color-interpolation-filters="sRGB">
<feFlood flood-opacity="0" result="BackgroundImageFix"/>
<feColorMatrix in="SourceAlpha" type="matrix" values="0 0 0 0 0 0 0 0 0 0 0 0 0 0 0 0 0 0 127 0" result="hardAlpha"/>
<feMorphology radius="0.95202" operator="dilate" in="SourceAlpha" result="effect1_dropShadow_0_1"/>
<feOffset dx="5.71212" dy="9.5202"/>
<feGaussianBlur stdDeviation="14.2803"/>
<feComposite in2="hardAlpha" operator="out"/>
<feColorMatrix type="matrix" values="0 0 0 0 0.423529 0 0 0 0 0.372549 0 0 0 0 0.737255 0 0 0 0.12 0"/>
<feBlend mode="normal" in2="BackgroundImageFix" result="effect1_dropShadow_0_1"/>
<feBlend mode="normal" in="SourceGraphic" in2="effect1_dropShadow_0_1" result="shape"/>
</filter>
<clipPath id="clip0_0_1">
<rect width="1440" height="3631" fill="white" transform="translate(-923 -366)"/>
</clipPath>
<clipPath id="clip1_0_1">
<rect width="34.5688" height="34.5688" fill="white"/>
</clipPath>
</defs>
</svg>
