<!-- icon666.com - MILLIONS vector ICONS FREE --><svg clip-rule="evenodd" fill-rule="evenodd" stroke-linejoin="round" stroke-miterlimit="2" viewBox="0 0 32 32" xmlns="http://www.w3.org/2000/svg" xmlns:xlink="http://www.w3.org/1999/xlink"><linearGradient id="_Linear1" gradientTransform="matrix(32 32 -32 32 432 96)" gradientUnits="userSpaceOnUse" x1="0" x2="1" y1="0" y2="0"><stop offset="0" stop-color="#ae76da"></stop><stop offset="1" stop-color="#251ee5"></stop></linearGradient><g transform="translate(-432 -96)"><g id="SOLID-GRADIENT"><path d="m437.311 106.667h-.079c-.732 0-1.43.305-1.926.841-.497.537-.748 1.256-.692 1.985.215 2.792.632 8.207.834 10.833.105 1.368 1.245 2.424 2.617 2.424h10.905c1.17 1.947 3.302 3.25 5.736 3.25 3.691 0 6.687-2.997 6.687-6.688 0-2.61-1.499-4.874-3.683-5.975l.296-3.844c.056-.729-.195-1.448-.691-1.985-.497-.536-1.195-.841-1.926-.841h-.08l-4.09-7.084c-.874-1.513-2.812-2.033-4.326-1.159-.214.124-.409.27-.583.433-.174-.163-.368-.309-.583-.433-1.514-.874-3.452-.354-4.326 1.159zm17.395 7.958c2.587 0 4.687 2.1 4.687 4.687 0 2.588-2.1 4.688-4.687 4.688s-4.688-2.1-4.688-4.688c0-2.587 2.101-4.687 4.688-4.687zm2.167 3.687h-4.334c-.552.001-1 .449-1 1.001 0 .551.448 1 1 .999h4.334c.552.001 1-.448 1-.999 0-.552-.448-1-1-1.001zm-14.558-11.645 2.839-4.917c.322-.558.13-1.272-.427-1.594-.558-.322-1.272-.13-1.594.427l-3.512 6.084zm2.31 0h3.371l-1.686-2.92zm8.374 0-3.512-6.084c-.322-.557-1.036-.749-1.594-.427-.557.322-.749 1.036-.427 1.594l2.839 4.917z" fill="url(#_Linear1)" style="fill: rgb(108, 95, 188);"></path></g></g></svg>