<?xml version="1.0" encoding="iso-8859-1"?>
<!-- Generator: Adobe Illustrator 19.1.0, SVG Export Plug-In . SVG Version: 6.00 Build 0)  -->
<svg version="1.1" id="Capa_1" xmlns="http://www.w3.org/2000/svg" xmlns:xlink="http://www.w3.org/1999/xlink" x="0px" y="0px"
	 viewBox="0 0 66.501 66.501" style="enable-background:new 0 0 66.501 66.501;" xml:space="preserve">
<g>
	<g id="group-25svg">
		<path id="path-1_17_" style="fill:#EDC951;" d="M48.865,64.25H24.136c-4.744,0-8.939-3.24-10.354-7.769L7.002,35.06
			c-2.183-6.986,3.035-13.81,10.355-13.81h38.289c7.318,0,12.536,6.746,10.353,13.731L59.22,56.657
			C57.804,61.186,53.609,64.25,48.865,64.25z"/>
		<path id="path-2_17_" d="M43.865,62.25H19.136c-5.448,0-10.184-3.445-11.785-8.571l-6.78-21.544
			c-1.174-3.76-0.52-7.72,1.793-10.867c2.345-3.189,5.987-5.018,9.993-5.018h38.289c3.994,0,7.63,1.831,9.977,5.022
			c2.326,3.164,2.984,7.139,1.808,10.907L55.65,53.733C54.058,58.826,49.321,62.25,43.865,62.25z M12.357,19.25
			c-3.042,0-5.802,1.383-7.576,3.795c-1.742,2.37-2.233,5.356-1.347,8.192l6.779,21.544c1.21,3.87,4.795,6.469,8.923,6.469h24.729
			c4.138,0,7.723-2.578,8.923-6.416l6.78-21.553c0.889-2.844,0.393-5.845-1.362-8.231c-1.775-2.415-4.531-3.8-7.56-3.8H12.357z"/>
		<path id="path-3_17_" d="M46.629,18.75c-0.828,0-1.5-0.671-1.5-1.5v-5.5c0-3.584-2.916-6.5-6.5-6.5h-15
			c-3.584,0-6.5,2.916-6.5,6.5v5.5c0,0.829-0.672,1.5-1.5,1.5c-0.828,0-1.5-0.671-1.5-1.5v-5.5c0-5.238,4.262-9.5,9.5-9.5h15
			c5.238,0,9.5,4.262,9.5,9.5v5.5C48.129,18.079,47.457,18.75,46.629,18.75z"/>
		<path id="path-4_16_" d="M37.129,40.25h-11c-0.828,0-1.5-0.671-1.5-1.5s0.672-1.5,1.5-1.5h11c0.828,0,1.5,0.671,1.5,1.5
			S37.957,40.25,37.129,40.25z"/>
	</g>
</g>
<g>
</g>
<g>
</g>
<g>
</g>
<g>
</g>
<g>
</g>
<g>
</g>
<g>
</g>
<g>
</g>
<g>
</g>
<g>
</g>
<g>
</g>
<g>
</g>
<g>
</g>
<g>
</g>
<g>
</g>
</svg>
