<svg width="893" height="491" viewBox="0 0 893 491" fill="none" xmlns="http://www.w3.org/2000/svg">
<g opacity="0.25">
<path d="M147.318 162.952C143.434 166.719 138.145 169.009 132.31 168.966C126.513 168.923 121.224 166.59 117.282 162.781" stroke="#1C186C" stroke-width="4.63957" stroke-linecap="round" stroke-linejoin="round"/>
<path d="M118.22 171.619C122.416 174.401 127.236 175.985 132.349 176.028C138.341 176.07 143.903 173.973 148.528 170.335C150.402 168.858 150.929 165.969 149.719 163.743L148.45 161.41L143.2 151.908C143.2 151.908 139.473 145.145 135.96 138.768C134.262 135.686 130.32 135.643 128.641 138.682L116.151 161.239L114.921 163.465C113.711 165.669 114.258 168.601 116.17 170.099C116.814 170.656 117.517 171.148 118.22 171.619Z" stroke="#1C186C" stroke-width="4.63957" stroke-linecap="round" stroke-linejoin="round"/>
<path d="M125.344 158.521C124.875 158.307 124.348 158.307 123.88 158.521C123.626 158.628 123.431 158.778 123.236 158.971C122.885 159.377 122.67 159.912 122.67 160.469C122.67 161.047 122.865 161.56 123.236 161.967C123.607 162.374 124.075 162.588 124.602 162.588C125.129 162.588 125.597 162.374 125.968 161.967C126.339 161.56 126.534 161.025 126.534 160.469C126.534 159.912 126.319 159.377 125.968 158.971C125.793 158.757 125.578 158.607 125.344 158.521Z" fill="#201D67"/>
<path d="M133.033 160.619C132.565 160.405 132.038 160.405 131.569 160.619C131.335 160.726 131.12 160.875 130.925 161.068C130.574 161.475 130.359 162.01 130.359 162.566C130.359 163.144 130.555 163.658 130.925 164.064C131.296 164.471 131.765 164.685 132.291 164.685C132.818 164.685 133.287 164.471 133.658 164.064C134.028 163.658 134.224 163.144 134.224 162.566C134.224 162.01 134.009 161.475 133.658 161.068C133.482 160.875 133.287 160.726 133.033 160.619Z" fill="#201D67"/>
<path d="M141.387 158.949C140.665 158.157 139.377 158.157 138.655 158.949C138.304 159.356 138.089 159.891 138.089 160.447C138.089 161.025 138.284 161.538 138.655 161.945C139.026 162.352 139.494 162.566 140.021 162.566C140.275 162.566 140.528 162.502 140.743 162.395C140.977 162.288 141.192 162.138 141.387 161.945C141.758 161.538 141.953 161.025 141.953 160.447C141.934 159.912 141.719 159.356 141.387 158.949Z" fill="#201D67"/>
<path d="M137.933 151.201C137.835 150.923 137.698 150.709 137.523 150.495C136.801 149.703 135.513 149.703 134.791 150.495C134.615 150.709 134.478 150.923 134.381 151.201C134.283 151.458 134.225 151.737 134.225 151.993C134.225 152.272 134.283 152.55 134.381 152.785C134.478 153.042 134.615 153.277 134.791 153.491C135.161 153.898 135.63 154.112 136.157 154.112C136.41 154.112 136.664 154.048 136.879 153.941C137.113 153.834 137.328 153.684 137.523 153.491C137.894 153.085 138.089 152.571 138.089 151.993C138.089 151.737 138.03 151.458 137.933 151.201Z" fill="#201D67"/>
<path d="M130.224 151.201C130.126 150.945 129.99 150.709 129.814 150.495C129.072 149.703 127.784 149.703 127.082 150.495C126.906 150.709 126.769 150.923 126.672 151.201C126.574 151.458 126.516 151.737 126.516 151.993C126.516 152.571 126.711 153.085 127.082 153.491C127.277 153.684 127.491 153.834 127.726 153.941C127.96 154.048 128.214 154.112 128.467 154.112C128.994 154.112 129.463 153.898 129.833 153.491C130.009 153.277 130.146 153.042 130.243 152.785C130.36 152.528 130.399 152.25 130.399 151.993C130.38 151.737 130.341 151.458 130.224 151.201Z" fill="#201D67"/>
<path d="M130.945 145.06C131.316 145.467 131.784 145.681 132.311 145.681C132.565 145.681 132.818 145.616 133.033 145.509C133.267 145.402 133.482 145.253 133.677 145.06C133.853 144.846 133.989 144.611 134.087 144.354C134.185 144.097 134.243 143.819 134.243 143.562C134.243 142.984 134.028 142.47 133.677 142.064C133.131 141.486 132.291 141.272 131.569 141.614C131.316 141.721 131.12 141.871 130.925 142.064C130.574 142.47 130.359 143.005 130.359 143.562C130.359 143.84 130.418 144.118 130.516 144.354C130.633 144.611 130.769 144.846 130.945 145.06Z" fill="#201D67"/>
<path d="M612.854 68.3139C610.493 73.7927 605.419 77.5808 599.525 77.5808C591.387 77.5808 584.771 70.3257 584.771 61.4012C584.771 53.4613 590.001 46.8482 596.91 45.4785C597.144 50.2939 600.364 54.2531 604.579 55.1306C604.501 55.7084 604.443 56.3077 604.443 56.9069C604.443 62.5141 608.053 67.201 612.854 68.3139Z" stroke="#1C186C" stroke-width="4.63957" stroke-linecap="round" stroke-linejoin="round"/>
<path d="M593.416 52.5845C592.226 52.5845 591.25 53.6545 591.25 54.96C591.25 56.2655 592.226 57.3356 593.416 57.3356C594.607 57.3356 595.583 56.2655 595.583 54.96C595.583 53.6331 594.607 52.5845 593.416 52.5845Z" fill="#201D67"/>
<path d="M588.635 40.1929C587.445 40.1929 586.469 41.2629 586.469 42.5684C586.469 43.8739 587.445 44.944 588.635 44.944C589.826 44.944 590.801 43.8739 590.801 42.5684C590.782 41.2415 589.826 40.1929 588.635 40.1929Z" fill="#201D67"/>
<path d="M599.72 59.8813C598.529 59.8813 597.554 60.9514 597.554 62.2569C597.554 63.5624 598.529 64.6325 599.72 64.6325C600.91 64.6325 601.886 63.5624 601.886 62.2569C601.886 60.93 600.91 59.8813 599.72 59.8813Z" fill="#201D67"/>
<path d="M601.594 69.4058C601.594 69.4058 601.184 69.6626 600.658 70.005C600.15 70.326 599.721 70.6042 599.721 70.6042C599.721 70.6042 600.131 70.3474 600.658 70.005C601.165 69.6626 601.594 69.4058 601.594 69.4058Z" stroke="#1C186C" stroke-width="4.63957" stroke-linecap="round" stroke-linejoin="round"/>
<path d="M591.659 63.2637C591.659 63.2637 592.108 63.4777 592.654 63.7345C593.201 63.9913 593.65 64.2053 593.65 64.2053C593.65 64.2053 593.201 63.9913 592.654 63.7345C592.108 63.4777 591.659 63.2637 591.659 63.2637Z" stroke="#1C186C" stroke-width="4.63957" stroke-linecap="round" stroke-linejoin="round"/>
<path d="M581.979 49.8023C581.979 49.8023 582.331 49.4385 582.76 48.989C583.189 48.5396 583.541 48.1758 583.541 48.1758C583.541 48.1758 583.189 48.5396 582.76 48.989C582.331 49.4385 581.979 49.8023 581.979 49.8023Z" stroke="#1C186C" stroke-width="4.63957" stroke-linecap="round" stroke-linejoin="round"/>
<path d="M580.007 61.723C577.978 59.1976 576.748 55.9018 576.748 52.285C576.748 44.3878 582.583 37.9888 589.785 37.9888C595.601 37.9888 600.538 42.1621 602.217 47.9405" stroke="#1C186C" stroke-width="4.63957" stroke-linecap="round" stroke-linejoin="round"/>
<path d="M211.54 226.578C210.287 226.272 208.984 226.316 207.749 226.705C206.515 227.094 205.39 227.815 204.475 228.803C204.088 229.242 203.871 229.83 203.871 230.441C203.871 231.052 204.088 231.639 204.475 232.078L206.7 234.603" stroke="#1C186C" stroke-width="4.63957" stroke-linecap="round" stroke-linejoin="round"/>
<path d="M226.099 242.821C226.367 244.213 226.315 245.656 225.947 247.02C225.579 248.383 224.907 249.625 223.991 250.633C223.797 250.848 223.566 251.018 223.311 251.135C223.057 251.251 222.784 251.311 222.508 251.311C222.232 251.311 221.959 251.251 221.704 251.135C221.45 251.018 221.219 250.848 221.025 250.633L218.761 248.107" stroke="#1C186C" stroke-width="4.63957" stroke-linecap="round" stroke-linejoin="round"/>
<path d="M208.242 248.621C209.047 250.017 209.473 251.635 209.472 253.287C209.471 254.401 209.269 255.505 208.877 256.534C208.485 257.562 207.911 258.495 207.188 259.279C207.052 259.414 206.875 259.489 206.691 259.489C206.507 259.489 206.329 259.414 206.193 259.279C205.555 258.57 205.045 257.735 204.69 256.818C204.368 256.147 204.144 255.425 204.027 254.678C203.982 254.223 203.982 253.763 204.027 253.308C204.377 251.227 205.345 249.331 206.778 247.915C205.45 249.449 203.704 250.47 201.802 250.826C201.386 250.869 200.968 250.869 200.553 250.826C199.87 250.679 199.212 250.42 198.601 250.055C197.761 249.618 197.006 249.008 196.376 248.257C196.253 248.108 196.185 247.913 196.185 247.712C196.185 247.51 196.253 247.315 196.376 247.166C197.837 245.6 199.798 244.724 201.841 244.726C203.339 244.737 204.802 245.22 206.056 246.117" stroke="#1C186C" stroke-width="4.63957" stroke-linecap="round" stroke-linejoin="round"/>
<path d="M230.628 221.848C230.396 221.557 230.134 221.299 229.847 221.077C229.044 220.516 228.147 220.136 227.209 219.96C226.271 219.784 225.31 219.814 224.382 220.05C222.191 220.413 220.076 221.203 218.137 222.383C214.493 224.313 211.431 227.351 209.316 231.136C207.441 234.941 206.38 239.163 206.213 243.484C206.213 243.784 205.881 246.031 206.096 246.181L208.262 248.621C208.399 248.856 210.428 248.621 210.702 248.514C214.661 248.4 218.543 247.279 222.04 245.239C225.51 242.992 228.305 239.682 230.081 235.716C231.799 231.799 233.75 225.571 230.628 221.848Z" stroke="#1C186C" stroke-width="4.63957" stroke-linecap="round" stroke-linejoin="round"/>
<path d="M217.042 224.331C217.834 227.251 219.26 229.917 221.199 232.099C223.146 234.276 225.552 235.893 228.205 236.808" stroke="#1C186C" stroke-width="4.63957" stroke-linecap="round" stroke-linejoin="round"/>
<path d="M225.475 224.394C225.293 224.187 225.075 224.022 224.833 223.91C224.592 223.797 224.332 223.739 224.07 223.739C223.807 223.739 223.548 223.797 223.306 223.91C223.065 224.022 222.847 224.187 222.665 224.394C222.399 224.697 222.22 225.078 222.151 225.491C222.081 225.904 222.124 226.33 222.274 226.717C222.423 227.103 222.674 227.433 222.993 227.664C223.312 227.896 223.687 228.02 224.07 228.02C224.453 228.02 224.827 227.896 225.147 227.664C225.466 227.433 225.716 227.103 225.866 226.717C226.016 226.33 226.058 225.904 225.989 225.491C225.919 225.078 225.741 224.697 225.475 224.394Z" fill="#201D67"/>
<path d="M409.182 237.428L417.203 261.633L425.224 237.428" stroke="#1C186C" stroke-width="4.63957" stroke-linecap="round" stroke-linejoin="round"/>
<path d="M429.244 236.337C428.912 236.337 428.62 236.358 428.346 236.401C426.2 236.786 425.907 238.541 423.214 238.541C420.189 238.541 420.189 236.337 417.203 236.337C414.178 236.337 414.178 238.541 411.192 238.541C408.498 238.541 408.225 236.808 406.059 236.401C405.805 236.358 405.493 236.337 405.161 236.337" stroke="#1C186C" stroke-width="4.63957" stroke-linecap="round" stroke-linejoin="round"/>
<path d="M427.235 233.041C427.235 234.197 427.078 235.353 426.747 236.401C424.893 236.787 424.658 238.542 422.355 238.542C419.76 238.542 419.76 236.337 417.203 236.337C414.608 236.337 414.608 238.542 412.051 238.542C409.748 238.542 409.494 236.808 407.66 236.401C407.348 235.353 407.172 234.197 407.172 233.041C407.172 226.963 411.661 222.041 417.203 222.041C422.746 222.041 427.235 226.963 427.235 233.041Z" stroke="#1C186C" stroke-width="4.63957" stroke-linecap="round" stroke-linejoin="round"/>
<path d="M427.235 239.634H407.172" stroke="#1C186C" stroke-width="4.63957" stroke-linecap="round" stroke-linejoin="round"/>
<path d="M615.683 240.551H601.241V242.82H615.683V240.551Z" stroke="#1C186C" stroke-width="4.63957" stroke-linecap="round" stroke-linejoin="round"/>
<path d="M624.427 222.446C625.754 222.446 626.769 223.816 626.456 225.228C624.407 234.025 617.128 240.531 608.463 240.531C599.797 240.531 592.518 234.025 590.469 225.228C590.137 223.816 591.152 222.446 592.498 222.446H624.427V222.446Z" stroke="#1C186C" stroke-width="4.63957" stroke-linecap="round" stroke-linejoin="round"/>
<path d="M600.675 222.446C602.949 222.446 604.792 220.424 604.792 217.93C604.792 215.436 602.949 213.415 600.675 213.415C598.4 213.415 596.557 215.436 596.557 217.93C596.557 220.424 598.4 222.446 600.675 222.446Z" stroke="#1C186C" stroke-width="4.63957" stroke-linecap="round" stroke-linejoin="round"/>
<path d="M616.249 222.105C618.523 222.105 620.367 220.083 620.367 217.589C620.367 215.095 618.523 213.073 616.249 213.073C613.974 213.073 612.131 215.095 612.131 217.589C612.131 220.083 613.974 222.105 616.249 222.105Z" stroke="#1C186C" stroke-width="4.63957" stroke-linecap="round" stroke-linejoin="round"/>
<path d="M609.107 222.126C610.821 222.126 612.21 220.602 612.21 218.723C612.21 216.844 610.821 215.32 609.107 215.32C607.393 215.32 606.004 216.844 606.004 218.723C606.004 220.602 607.393 222.126 609.107 222.126Z" stroke="#1C186C" stroke-width="4.63957" stroke-linecap="round" stroke-linejoin="round"/>
<path d="M598.431 213.715L591.952 206.609" stroke="#1C186C" stroke-width="4.63957" stroke-linecap="round" stroke-linejoin="round"/>
<path d="M593.006 229.189H623.92" stroke="#1C186C" stroke-width="4.63957" stroke-linecap="round" stroke-linejoin="round"/>
<path d="M532.349 134.83H497.22C497.22 138.382 499.835 141.25 503.075 141.25H526.494C529.734 141.25 532.349 138.382 532.349 134.83Z" stroke="#1C186C" stroke-width="4.63957" stroke-linecap="round" stroke-linejoin="round"/>
<path d="M514.785 115.568C506.159 115.568 499.172 123.23 499.172 132.69V134.83H530.398V132.69C530.398 123.23 523.411 115.568 514.785 115.568Z" stroke="#1C186C" stroke-width="4.63957" stroke-linecap="round" stroke-linejoin="round"/>
<path d="M514.784 117.174C516.671 117.174 518.2 115.497 518.2 113.428C518.2 111.36 516.671 109.683 514.784 109.683C512.898 109.683 511.369 111.36 511.369 113.428C511.369 115.497 512.898 117.174 514.784 117.174Z" fill="#201D67"/>
<path d="M392.257 104.97C397.663 105.334 403.069 107.923 407.343 112.674C411.578 117.383 413.9 123.375 414.252 129.367" stroke="#1C186C" stroke-width="4.63957" stroke-linecap="round" stroke-linejoin="round"/>
<path d="M416.474 130.758L414.074 131.4L389.717 137.928C386.439 138.805 383.57 135.595 384.39 131.957L386.107 124.252L386.224 123.76L387.727 117.061L387.863 116.419L390.4 105.183L391.025 102.444C391.611 99.8117 393.933 98.121 396.314 98.549C402.169 99.5977 407.672 102.551 412.063 107.431C416.435 112.267 419.07 118.367 420.026 124.851C420.416 127.505 418.855 130.116 416.474 130.758Z" stroke="#1C186C" stroke-width="4.63957" stroke-linecap="round" stroke-linejoin="round"/>
<path d="M401.76 123.909C403.485 123.909 404.883 122.357 404.883 120.442C404.883 118.527 403.485 116.975 401.76 116.975C400.036 116.975 398.638 118.527 398.638 120.442C398.638 122.357 400.036 123.909 401.76 123.909Z" stroke="#1C186C" stroke-width="4.63957" stroke-linecap="round" stroke-linejoin="round"/>
<path d="M390.205 122.605C389.132 123.803 387.59 124.188 386.224 123.718L388.175 114.986C388.917 115.178 389.619 115.564 390.205 116.206C391.805 117.982 391.805 120.85 390.205 122.605Z" stroke="#1C186C" stroke-width="4.63957" stroke-linecap="round" stroke-linejoin="round"/>
<path d="M392.665 134.803C392.372 133.562 392.665 132.192 393.523 131.229C394.831 129.774 396.939 129.774 398.246 131.229C398.676 131.7 398.969 132.278 399.105 132.898" stroke="#1C186C" stroke-width="4.63957" stroke-linecap="round" stroke-linejoin="round"/>
<path d="M314.062 136.776L294.078 158.691C291.951 161.024 291.951 164.791 294.078 167.123C296.205 169.456 299.64 169.456 301.767 167.123L321.752 145.208C323.879 142.875 323.879 139.109 321.752 136.776C319.625 134.443 316.19 134.443 314.062 136.776Z" stroke="#1C186C" stroke-width="4.63957" stroke-linecap="round" stroke-linejoin="round"/>
<path d="M298.273 161.602C300.576 159.076 301.396 159.975 303.718 157.45C306.021 154.925 305.202 154.026 307.505 151.479C309.808 148.953 310.647 149.852 312.95 147.327C315.253 144.802 314.433 143.881 316.736 141.356" stroke="#1C186C" stroke-width="4.63957" stroke-linecap="round" stroke-linejoin="round"/>
<path d="M307.153 134.251L291.774 151.115C289.217 153.919 289.217 158.435 291.774 161.238L316.364 134.272C313.827 131.447 309.69 131.447 307.153 134.251Z" stroke="#1C186C" stroke-width="4.63957" stroke-linecap="round" stroke-linejoin="round"/>
<path d="M308.676 169.648L324.054 152.784C326.611 149.98 326.611 145.465 324.054 142.661L299.464 169.627C302.001 172.452 306.138 172.452 308.676 169.648Z" stroke="#1C186C" stroke-width="4.63957" stroke-linecap="round" stroke-linejoin="round"/>
<path d="M210.333 88.2172H190.816C187.343 88.2172 184.532 85.1354 184.532 81.3259V77.2168H216.617V81.3259C216.617 85.1354 213.807 88.2172 210.333 88.2172Z" stroke="#1C186C" stroke-width="4.63957" stroke-linecap="round" stroke-linejoin="round"/>
<path d="M215.622 70.6245H185.528C183.869 70.6245 182.522 72.1012 182.522 73.9203C182.522 75.7395 183.869 77.2162 185.528 77.2162H215.622C217.281 77.2162 218.627 75.7395 218.627 73.9203C218.627 72.1012 217.281 70.6245 215.622 70.6245Z" stroke="#1C186C" stroke-width="4.63957" stroke-linecap="round" stroke-linejoin="round"/>
<path d="M201.609 53.0327H199.54C191.246 53.0327 184.532 60.3948 184.532 69.4905V70.6247H216.617V69.4905C216.617 60.3948 209.903 53.0327 201.609 53.0327Z" stroke="#1C186C" stroke-width="4.63957" stroke-linecap="round" stroke-linejoin="round"/>
<path d="M184.317 77.7515C185.079 78.6503 185.625 79.8702 187.05 79.8702C188.474 79.8702 189.021 78.6503 189.782 77.7515" stroke="#1C186C" stroke-width="4.63957" stroke-linecap="round" stroke-linejoin="round"/>
<path d="M202.643 77.7515C203.404 78.6503 203.95 79.8702 205.375 79.8702C206.819 79.8702 207.365 78.6503 208.127 77.7515" stroke="#1C186C" stroke-width="4.63957" stroke-linecap="round" stroke-linejoin="round"/>
<path d="M214.566 79.8487C213.142 79.8487 212.595 78.6288 211.834 77.73" stroke="#1C186C" stroke-width="4.63957" stroke-linecap="round" stroke-linejoin="round"/>
<path d="M193.489 77.7515C194.25 78.6503 194.797 79.8702 196.222 79.8702C197.646 79.8702 198.193 78.6503 198.954 77.7515" stroke="#1C186C" stroke-width="4.63957" stroke-linecap="round" stroke-linejoin="round"/>
<path d="M38.428 372.687C34.5443 376.454 29.2554 378.744 23.42 378.701C17.6237 378.658 12.3348 376.326 8.39258 372.516" stroke="#1C186C" stroke-width="4.63957" stroke-linecap="round" stroke-linejoin="round"/>
<path d="M9.33 381.355C13.526 384.137 18.3465 385.721 23.4597 385.763C29.4512 385.806 35.0133 383.709 39.6386 380.071C41.5122 378.594 42.0391 375.705 40.8291 373.479L39.5606 371.146L34.3107 361.644C34.3107 361.644 30.5831 354.881 27.0702 348.503C25.3723 345.422 21.43 345.379 19.7516 348.418L7.26129 370.975L6.03176 373.201C4.82176 375.405 5.36821 378.337 7.2808 379.835C7.92483 380.392 8.62742 380.884 9.33 381.355Z" stroke="#1C186C" stroke-width="4.63957" stroke-linecap="round" stroke-linejoin="round"/>
<path d="M16.453 368.255C15.9846 368.041 15.4577 368.041 14.9893 368.255C14.7356 368.362 14.5404 368.512 14.3453 368.704C13.994 369.111 13.7793 369.646 13.7793 370.202C13.7793 370.78 13.9745 371.294 14.3453 371.7C14.7161 372.107 15.1845 372.321 15.7114 372.321C16.2383 372.321 16.7067 372.107 17.0775 371.7C17.4483 371.294 17.6435 370.759 17.6435 370.202C17.6435 369.646 17.4288 369.111 17.0775 368.704C16.9019 368.49 16.6872 368.34 16.453 368.255Z" fill="#201D67"/>
<path d="M24.1425 370.353C23.6741 370.139 23.1471 370.139 22.6787 370.353C22.4445 370.46 22.2299 370.61 22.0347 370.803C21.6834 371.209 21.4688 371.744 21.4688 372.301C21.4688 372.879 21.6639 373.392 22.0347 373.799C22.4055 374.206 22.8739 374.42 23.4009 374.42C23.9278 374.42 24.3962 374.206 24.767 373.799C25.1378 373.392 25.3329 372.879 25.3329 372.301C25.3329 371.744 25.1183 371.209 24.767 370.803C24.5913 370.61 24.3962 370.46 24.1425 370.353Z" fill="#201D67"/>
<path d="M32.4945 368.682C31.7724 367.89 30.4843 367.89 29.7622 368.682C29.411 369.089 29.1963 369.624 29.1963 370.18C29.1963 370.758 29.3914 371.272 29.7622 371.678C30.1331 372.085 30.6014 372.299 31.1284 372.299C31.3821 372.299 31.6358 372.235 31.8505 372.128C32.0847 372.021 32.2993 371.871 32.4945 371.678C32.8653 371.272 33.0605 370.758 33.0605 370.18C33.041 369.645 32.8263 369.089 32.4945 368.682Z" fill="#201D67"/>
<path d="M29.0411 360.937C28.9435 360.659 28.8069 360.445 28.6312 360.231C27.9091 359.439 26.6211 359.439 25.899 360.231C25.7233 360.445 25.5867 360.659 25.4891 360.937C25.3916 361.194 25.333 361.472 25.333 361.729C25.333 362.007 25.3916 362.285 25.4891 362.521C25.5867 362.777 25.7233 363.013 25.899 363.227C26.2698 363.633 26.7382 363.847 27.2651 363.847C27.5188 363.847 27.7725 363.783 27.9872 363.676C28.2214 363.569 28.4361 363.419 28.6312 363.227C29.0021 362.82 29.1972 362.307 29.1972 361.729C29.1972 361.472 29.1387 361.194 29.0411 360.937Z" fill="#201D67"/>
<path d="M21.3311 360.937C21.2335 360.68 21.0969 360.445 20.9213 360.231C20.1797 359.439 18.8916 359.439 18.189 360.231C18.0134 360.445 17.8768 360.659 17.7792 360.937C17.6816 361.194 17.623 361.472 17.623 361.729C17.623 362.307 17.8182 362.82 18.189 363.227C18.3842 363.419 18.5988 363.569 18.833 363.676C19.0672 363.783 19.321 363.847 19.5747 363.847C20.1016 363.847 20.57 363.633 20.9408 363.227C21.1164 363.013 21.2531 362.777 21.3506 362.521C21.4677 362.264 21.5068 361.986 21.5068 361.729C21.4873 361.472 21.4482 361.194 21.3311 360.937Z" fill="#201D67"/>
<path d="M22.0542 354.793C22.425 355.2 22.8934 355.414 23.4204 355.414C23.6741 355.414 23.9278 355.35 24.1425 355.243C24.3767 355.136 24.5913 354.986 24.7865 354.793C24.9621 354.579 25.0988 354.344 25.1963 354.087C25.2939 353.83 25.3525 353.552 25.3525 353.295C25.3525 352.717 25.1378 352.204 24.7865 351.797C24.24 351.219 23.4008 351.005 22.6787 351.348C22.425 351.455 22.2299 351.605 22.0347 351.797C21.6834 352.204 21.4688 352.739 21.4688 353.295C21.4688 353.574 21.5273 353.852 21.6249 354.087C21.742 354.344 21.8786 354.579 22.0542 354.793Z" fill="#201D67"/>
<path d="M704.556 118.009C700.672 121.776 695.383 124.066 689.548 124.023C683.752 123.98 678.463 121.647 674.521 117.838" stroke="#1C186C" stroke-width="4.63957" stroke-linecap="round" stroke-linejoin="round"/>
<path d="M675.457 126.676C679.653 129.458 684.473 131.042 689.587 131.085C695.578 131.128 701.14 129.03 705.766 125.392C707.639 123.915 708.166 121.026 706.956 118.8L705.688 116.467L700.438 106.965C700.438 106.965 696.71 100.202 693.197 93.8247C691.499 90.7429 687.557 90.7001 685.879 93.7391L673.388 116.296L672.159 118.522C670.949 120.726 671.495 123.658 673.408 125.156C674.052 125.713 674.754 126.205 675.457 126.676Z" stroke="#1C186C" stroke-width="4.63957" stroke-linecap="round" stroke-linejoin="round"/>
<path d="M682.58 113.578C682.112 113.364 681.585 113.364 681.116 113.578C680.863 113.685 680.667 113.835 680.472 114.028C680.121 114.435 679.906 114.97 679.906 115.526C679.906 116.104 680.101 116.617 680.472 117.024C680.843 117.431 681.311 117.645 681.838 117.645C682.365 117.645 682.834 117.431 683.204 117.024C683.575 116.617 683.77 116.082 683.77 115.526C683.77 114.97 683.556 114.435 683.204 114.028C683.029 113.814 682.814 113.664 682.58 113.578Z" fill="#201D67"/>
<path d="M690.269 115.678C689.801 115.464 689.274 115.464 688.806 115.678C688.572 115.785 688.357 115.934 688.162 116.127C687.81 116.534 687.596 117.069 687.596 117.625C687.596 118.203 687.791 118.717 688.162 119.123C688.532 119.53 689.001 119.744 689.528 119.744C690.055 119.744 690.523 119.53 690.894 119.123C691.265 118.717 691.46 118.203 691.46 117.625C691.46 117.069 691.245 116.534 690.894 116.127C690.718 115.934 690.523 115.785 690.269 115.678Z" fill="#201D67"/>
<path d="M698.623 114.006C697.901 113.215 696.613 113.215 695.891 114.006C695.54 114.413 695.325 114.948 695.325 115.505C695.325 116.082 695.52 116.596 695.891 117.003C696.262 117.409 696.73 117.623 697.257 117.623C697.511 117.623 697.765 117.559 697.979 117.452C698.214 117.345 698.428 117.195 698.623 117.003C698.994 116.596 699.189 116.082 699.189 115.505C699.17 114.97 698.955 114.413 698.623 114.006Z" fill="#201D67"/>
<path d="M695.168 106.261C695.07 105.982 694.934 105.768 694.758 105.554C694.036 104.762 692.748 104.762 692.026 105.554C691.85 105.768 691.714 105.982 691.616 106.261C691.519 106.517 691.46 106.796 691.46 107.052C691.46 107.331 691.519 107.609 691.616 107.844C691.714 108.101 691.85 108.337 692.026 108.551C692.397 108.957 692.865 109.171 693.392 109.171C693.646 109.171 693.899 109.107 694.114 109C694.348 108.893 694.563 108.743 694.758 108.551C695.129 108.144 695.324 107.63 695.324 107.052C695.324 106.796 695.266 106.517 695.168 106.261Z" fill="#201D67"/>
<path d="M687.458 106.261C687.36 106.004 687.224 105.768 687.048 105.554C686.307 104.762 685.019 104.762 684.316 105.554C684.14 105.768 684.004 105.982 683.906 106.261C683.809 106.517 683.75 106.796 683.75 107.052C683.75 107.63 683.945 108.144 684.316 108.551C684.511 108.743 684.726 108.893 684.96 109C685.194 109.107 685.448 109.171 685.702 109.171C686.229 109.171 686.697 108.957 687.068 108.551C687.243 108.337 687.38 108.101 687.478 107.844C687.595 107.587 687.634 107.309 687.634 107.052C687.614 106.796 687.575 106.517 687.458 106.261Z" fill="#201D67"/>
<path d="M688.181 100.117C688.552 100.524 689.02 100.738 689.547 100.738C689.801 100.738 690.055 100.674 690.269 100.567C690.504 100.46 690.718 100.31 690.913 100.117C691.089 99.9031 691.226 99.6677 691.323 99.4109C691.421 99.154 691.479 98.8758 691.479 98.619C691.479 98.0412 691.265 97.5276 690.913 97.1209C690.367 96.5431 689.528 96.3291 688.806 96.6715C688.552 96.7785 688.357 96.9283 688.162 97.1209C687.81 97.5276 687.596 98.0626 687.596 98.619C687.596 98.8972 687.654 99.1754 687.752 99.4109C687.869 99.6677 688.006 99.9031 688.181 100.117Z" fill="#201D67"/>
<path d="M641.035 385.527C637.152 389.294 631.863 391.584 626.027 391.541C620.231 391.498 614.942 389.165 611 385.356" stroke="#1C186C" stroke-width="4.63957" stroke-linecap="round" stroke-linejoin="round"/>
<path d="M611.936 394.194C616.132 396.976 620.953 398.56 626.066 398.603C632.058 398.646 637.62 396.548 642.245 392.91C644.119 391.433 644.646 388.544 643.436 386.318L642.167 383.986L636.917 374.483C636.917 374.483 633.19 367.72 629.677 361.343C627.979 358.261 624.036 358.218 622.358 361.257L609.868 383.814L608.638 386.04C607.428 388.244 607.975 391.176 609.887 392.675C610.531 393.231 611.234 393.723 611.936 394.194Z" stroke="#1C186C" stroke-width="4.63957" stroke-linecap="round" stroke-linejoin="round"/>
<path d="M619.059 381.097C618.591 380.883 618.064 380.883 617.596 381.097C617.342 381.204 617.147 381.354 616.952 381.546C616.6 381.953 616.386 382.488 616.386 383.045C616.386 383.622 616.581 384.136 616.952 384.543C617.323 384.949 617.791 385.163 618.318 385.163C618.845 385.163 619.313 384.949 619.684 384.543C620.055 384.136 620.25 383.601 620.25 383.045C620.25 382.488 620.035 381.953 619.684 381.546C619.508 381.332 619.294 381.183 619.059 381.097Z" fill="#201D67"/>
<path d="M626.749 383.195C626.281 382.981 625.754 382.981 625.285 383.195C625.051 383.302 624.836 383.451 624.641 383.644C624.29 384.051 624.075 384.586 624.075 385.142C624.075 385.72 624.27 386.234 624.641 386.64C625.012 387.047 625.48 387.261 626.007 387.261C626.534 387.261 627.003 387.047 627.373 386.64C627.744 386.234 627.939 385.72 627.939 385.142C627.939 384.586 627.725 384.051 627.373 383.644C627.198 383.451 627.003 383.302 626.749 383.195Z" fill="#201D67"/>
<path d="M635.103 381.525C634.381 380.733 633.093 380.733 632.371 381.525C632.019 381.931 631.805 382.466 631.805 383.023C631.805 383.6 632 384.114 632.371 384.521C632.741 384.927 633.21 385.141 633.737 385.141C633.99 385.141 634.244 385.077 634.459 384.97C634.693 384.863 634.908 384.713 635.103 384.521C635.474 384.114 635.669 383.6 635.669 383.023C635.649 382.488 635.435 381.931 635.103 381.525Z" fill="#201D67"/>
<path d="M631.649 373.778C631.551 373.5 631.414 373.286 631.239 373.072C630.517 372.28 629.229 372.28 628.506 373.072C628.331 373.286 628.194 373.5 628.097 373.778C627.999 374.035 627.94 374.313 627.94 374.57C627.94 374.848 627.999 375.126 628.097 375.362C628.194 375.619 628.331 375.854 628.506 376.068C628.877 376.475 629.346 376.689 629.873 376.689C630.126 376.689 630.38 376.625 630.595 376.518C630.829 376.411 631.044 376.261 631.239 376.068C631.609 375.661 631.805 375.148 631.805 374.57C631.805 374.313 631.746 374.035 631.649 373.778Z" fill="#201D67"/>
<path d="M623.94 373.778C623.842 373.521 623.705 373.286 623.53 373.072C622.788 372.28 621.5 372.28 620.797 373.072C620.622 373.286 620.485 373.5 620.388 373.778C620.29 374.035 620.231 374.313 620.231 374.57C620.231 375.148 620.427 375.661 620.797 376.068C620.993 376.261 621.207 376.411 621.441 376.518C621.676 376.625 621.929 376.689 622.183 376.689C622.71 376.689 623.178 376.475 623.549 376.068C623.725 375.854 623.861 375.619 623.959 375.362C624.076 375.105 624.115 374.827 624.115 374.57C624.096 374.313 624.057 374.035 623.94 373.778Z" fill="#201D67"/>
<path d="M624.661 367.636C625.031 368.042 625.5 368.256 626.027 368.256C626.281 368.256 626.534 368.192 626.749 368.085C626.983 367.978 627.198 367.828 627.393 367.636C627.569 367.422 627.705 367.186 627.803 366.929C627.9 366.673 627.959 366.394 627.959 366.138C627.959 365.56 627.744 365.046 627.393 364.639C626.846 364.062 626.007 363.848 625.285 364.19C625.031 364.297 624.836 364.447 624.641 364.639C624.29 365.046 624.075 365.581 624.075 366.138C624.075 366.416 624.134 366.694 624.231 366.929C624.348 367.186 624.485 367.422 624.661 367.636Z" fill="#201D67"/>
<path d="M519.175 278.048C516.813 283.527 511.739 287.315 505.845 287.315C497.707 287.315 491.091 280.06 491.091 271.136C491.091 263.196 496.321 256.583 503.23 255.213C503.464 260.028 506.684 263.988 510.9 264.865C510.822 265.443 510.763 266.042 510.763 266.641C510.763 272.248 514.374 276.935 519.175 278.048Z" stroke="#1C186C" stroke-width="4.63957" stroke-linecap="round" stroke-linejoin="round"/>
<path d="M499.736 262.318C498.545 262.318 497.569 263.388 497.569 264.693C497.569 265.999 498.545 267.069 499.736 267.069C500.926 267.069 501.902 265.999 501.902 264.693C501.902 263.367 500.926 262.318 499.736 262.318Z" fill="#201D67"/>
<path d="M494.954 249.926C493.764 249.926 492.788 250.996 492.788 252.301C492.788 253.607 493.764 254.677 494.954 254.677C496.145 254.677 497.121 253.607 497.121 252.301C497.101 250.974 496.145 249.926 494.954 249.926Z" fill="#201D67"/>
<path d="M506.039 269.617C504.849 269.617 503.873 270.687 503.873 271.992C503.873 273.298 504.849 274.368 506.039 274.368C507.23 274.368 508.206 273.298 508.206 271.992C508.206 270.665 507.23 269.617 506.039 269.617Z" fill="#201D67"/>
<path d="M507.914 279.138C507.914 279.138 507.504 279.395 506.977 279.737C506.469 280.058 506.04 280.337 506.04 280.337C506.04 280.337 506.45 280.08 506.977 279.737C507.484 279.395 507.914 279.138 507.914 279.138Z" stroke="#1C186C" stroke-width="4.63957" stroke-linecap="round" stroke-linejoin="round"/>
<path d="M497.981 272.998C497.981 272.998 498.43 273.212 498.977 273.468C499.523 273.725 499.972 273.939 499.972 273.939C499.972 273.939 499.523 273.725 498.977 273.468C498.43 273.212 497.981 272.998 497.981 272.998Z" stroke="#1C186C" stroke-width="4.63957" stroke-linecap="round" stroke-linejoin="round"/>
<path d="M488.301 259.536C488.301 259.536 488.652 259.172 489.081 258.723C489.511 258.273 489.862 257.91 489.862 257.91C489.862 257.91 489.511 258.273 489.081 258.723C488.652 259.172 488.301 259.536 488.301 259.536Z" stroke="#1C186C" stroke-width="4.63957" stroke-linecap="round" stroke-linejoin="round"/>
<path d="M486.33 271.457C484.3 268.932 483.07 265.636 483.07 262.019C483.07 254.122 488.906 247.723 496.107 247.723C501.923 247.723 506.861 251.896 508.539 257.675" stroke="#1C186C" stroke-width="4.63957" stroke-linecap="round" stroke-linejoin="round"/>
<path d="M117.863 405.335C116.61 405.03 115.307 405.074 114.073 405.463C112.839 405.851 111.713 406.573 110.799 407.561C110.411 408 110.194 408.587 110.194 409.198C110.194 409.809 110.411 410.397 110.799 410.836L113.023 413.361" stroke="#1C186C" stroke-width="4.63957" stroke-linecap="round" stroke-linejoin="round"/>
<path d="M132.422 421.579C132.69 422.97 132.638 424.413 132.27 425.777C131.902 427.141 131.23 428.383 130.314 429.39C130.12 429.605 129.889 429.776 129.635 429.892C129.38 430.008 129.107 430.068 128.831 430.068C128.555 430.068 128.282 430.008 128.028 429.892C127.773 429.776 127.542 429.605 127.348 429.39L125.084 426.865" stroke="#1C186C" stroke-width="4.63957" stroke-linecap="round" stroke-linejoin="round"/>
<path d="M114.565 427.378C115.37 428.774 115.797 430.392 115.795 432.044C115.794 433.159 115.592 434.262 115.2 435.291C114.809 436.32 114.234 437.253 113.512 438.036C113.375 438.172 113.198 438.247 113.014 438.247C112.83 438.247 112.653 438.172 112.516 438.036C111.878 437.328 111.368 436.492 111.013 435.575C110.691 434.905 110.467 434.182 110.35 433.435C110.305 432.98 110.305 432.521 110.35 432.065C110.701 429.984 111.668 428.089 113.102 426.672C111.773 428.206 110.027 429.227 108.125 429.583C107.71 429.626 107.291 429.626 106.876 429.583C106.193 429.437 105.535 429.177 104.924 428.812C104.084 428.375 103.329 427.765 102.7 427.015C102.576 426.865 102.508 426.671 102.508 426.469C102.508 426.267 102.576 426.073 102.7 425.923C104.16 424.357 106.122 423.481 108.164 423.483C109.662 423.494 111.125 423.977 112.38 424.874" stroke="#1C186C" stroke-width="4.63957" stroke-linecap="round" stroke-linejoin="round"/>
<path d="M136.951 400.606C136.72 400.316 136.458 400.057 136.17 399.835C135.367 399.275 134.47 398.895 133.532 398.718C132.594 398.542 131.633 398.573 130.706 398.808C128.514 399.171 126.399 399.961 124.46 401.141C120.816 403.071 117.754 406.11 115.639 409.894C113.764 413.699 112.703 417.922 112.536 422.243C112.536 422.542 112.204 424.79 112.419 424.939L114.585 427.379C114.722 427.615 116.752 427.379 117.025 427.272C120.985 427.159 124.866 426.038 128.364 423.998C131.833 421.751 134.628 418.44 136.404 414.474C138.122 410.558 140.073 404.33 136.951 400.606Z" stroke="#1C186C" stroke-width="4.63957" stroke-linecap="round" stroke-linejoin="round"/>
<path d="M123.367 403.088C124.159 406.009 125.585 408.675 127.524 410.857C129.471 413.034 131.878 414.651 134.53 415.565" stroke="#1C186C" stroke-width="4.63957" stroke-linecap="round" stroke-linejoin="round"/>
<path d="M131.798 403.153C131.616 402.946 131.398 402.781 131.156 402.669C130.915 402.556 130.655 402.498 130.393 402.498C130.131 402.498 129.871 402.556 129.63 402.669C129.388 402.781 129.17 402.946 128.988 403.153C128.722 403.455 128.543 403.837 128.474 404.25C128.404 404.663 128.447 405.089 128.597 405.475C128.747 405.862 128.997 406.191 129.316 406.423C129.636 406.655 130.01 406.778 130.393 406.778C130.776 406.778 131.15 406.655 131.47 406.423C131.789 406.191 132.039 405.862 132.189 405.475C132.339 405.089 132.382 404.663 132.312 404.25C132.243 403.837 132.064 403.455 131.798 403.153Z" fill="#201D67"/>
<path d="M777.47 181.636C776.216 181.331 774.913 181.375 773.679 181.763C772.445 182.152 771.319 182.874 770.405 183.862C770.017 184.301 769.801 184.888 769.801 185.499C769.801 186.11 770.017 186.697 770.405 187.136L772.63 189.662" stroke="#1C186C" stroke-width="4.63957" stroke-linecap="round" stroke-linejoin="round"/>
<path d="M792.029 197.879C792.297 199.271 792.244 200.714 791.876 202.078C791.508 203.442 790.836 204.683 789.921 205.691C789.727 205.906 789.496 206.076 789.241 206.193C788.986 206.309 788.713 206.369 788.438 206.369C788.162 206.369 787.889 206.309 787.634 206.193C787.379 206.076 787.148 205.906 786.954 205.691L784.69 203.166" stroke="#1C186C" stroke-width="4.63957" stroke-linecap="round" stroke-linejoin="round"/>
<path d="M774.172 203.68C774.977 205.076 775.403 206.694 775.401 208.345C775.401 209.46 775.199 210.564 774.807 211.592C774.415 212.621 773.841 213.554 773.118 214.338C772.982 214.473 772.804 214.548 772.62 214.548C772.436 214.548 772.259 214.473 772.123 214.338C771.484 213.629 770.974 212.794 770.62 211.877C770.297 211.206 770.073 210.484 769.956 209.736C769.912 209.281 769.912 208.822 769.956 208.367C770.307 206.286 771.274 204.39 772.708 202.973C771.379 204.507 769.633 205.528 767.732 205.884C767.316 205.927 766.898 205.927 766.482 205.884C765.8 205.738 765.142 205.478 764.531 205.114C763.691 204.677 762.936 204.066 762.306 203.316C762.183 203.166 762.114 202.972 762.114 202.77C762.114 202.568 762.183 202.374 762.306 202.224C763.766 200.659 765.728 199.783 767.771 199.785C769.268 199.795 770.732 200.278 771.986 201.176" stroke="#1C186C" stroke-width="4.63957" stroke-linecap="round" stroke-linejoin="round"/>
<path d="M796.557 176.906C796.326 176.616 796.064 176.357 795.777 176.136C794.974 175.575 794.077 175.195 793.139 175.019C792.2 174.842 791.239 174.873 790.312 175.108C788.12 175.472 786.005 176.262 784.067 177.441C780.422 179.372 777.36 182.41 775.246 186.194C773.37 189.999 772.309 194.222 772.143 198.543C772.143 198.843 771.811 201.09 772.025 201.24L774.192 203.679C774.328 203.915 776.358 203.679 776.631 203.572C780.591 203.459 784.473 202.338 787.97 200.298C791.44 198.051 794.235 194.741 796.011 190.774C797.728 186.858 799.68 180.63 796.557 176.906Z" stroke="#1C186C" stroke-width="4.63957" stroke-linecap="round" stroke-linejoin="round"/>
<path d="M782.975 179.389C783.766 182.31 785.193 184.976 787.132 187.158C789.079 189.335 791.485 190.952 794.138 191.866" stroke="#1C186C" stroke-width="4.63957" stroke-linecap="round" stroke-linejoin="round"/>
<path d="M791.405 179.453C791.223 179.246 791.004 179.081 790.763 178.968C790.521 178.856 790.262 178.798 789.999 178.798C789.737 178.798 789.477 178.856 789.236 178.968C788.995 179.081 788.776 179.246 788.594 179.453C788.329 179.755 788.15 180.137 788.08 180.549C788.011 180.962 788.054 181.389 788.203 181.775C788.353 182.162 788.603 182.491 788.923 182.723C789.242 182.955 789.617 183.078 789.999 183.078C790.382 183.078 790.757 182.955 791.076 182.723C791.396 182.491 791.646 182.162 791.796 181.775C791.945 181.389 791.988 180.962 791.919 180.549C791.849 180.137 791.67 179.755 791.405 179.453Z" fill="#201D67"/>
<path d="M716.126 425.326C714.873 425.02 713.569 425.064 712.335 425.453C711.101 425.842 709.976 426.563 709.061 427.551C708.674 427.99 708.457 428.578 708.457 429.189C708.457 429.8 708.674 430.387 709.061 430.826L711.286 433.351" stroke="#1C186C" stroke-width="4.63957" stroke-linecap="round" stroke-linejoin="round"/>
<path d="M730.685 441.569C730.953 442.961 730.901 444.404 730.533 445.768C730.165 447.132 729.492 448.373 728.577 449.381C728.383 449.596 728.152 449.766 727.897 449.883C727.643 449.999 727.37 450.059 727.094 450.059C726.818 450.059 726.545 449.999 726.29 449.883C726.036 449.766 725.805 449.596 725.611 449.381L723.347 446.856" stroke="#1C186C" stroke-width="4.63957" stroke-linecap="round" stroke-linejoin="round"/>
<path d="M712.828 447.369C713.633 448.765 714.059 450.383 714.058 452.035C714.057 453.149 713.855 454.253 713.463 455.282C713.071 456.31 712.497 457.243 711.774 458.027C711.638 458.162 711.461 458.237 711.277 458.237C711.093 458.237 710.915 458.162 710.779 458.027C710.141 457.318 709.631 456.483 709.276 455.566C708.953 454.895 708.73 454.173 708.613 453.426C708.568 452.971 708.568 452.511 708.613 452.056C708.963 449.975 709.931 448.079 711.364 446.663C710.035 448.197 708.29 449.218 706.388 449.574C705.972 449.617 705.554 449.617 705.139 449.574C704.456 449.428 703.798 449.168 703.187 448.803C702.347 448.366 701.592 447.756 700.962 447.005C700.839 446.856 700.771 446.661 700.771 446.46C700.771 446.258 700.839 446.063 700.962 445.914C702.423 444.348 704.384 443.472 706.427 443.474C707.925 443.485 709.388 443.968 710.642 444.865" stroke="#1C186C" stroke-width="4.63957" stroke-linecap="round" stroke-linejoin="round"/>
<path d="M735.214 420.596C734.982 420.305 734.72 420.047 734.433 419.825C733.63 419.264 732.733 418.885 731.795 418.708C730.857 418.532 729.896 418.562 728.968 418.798C726.776 419.161 724.661 419.951 722.723 421.131C719.079 423.061 716.017 426.099 713.902 429.884C712.027 433.689 710.966 437.911 710.799 442.232C710.799 442.532 710.467 444.779 710.682 444.929L712.848 447.369C712.985 447.604 715.014 447.369 715.287 447.262C719.247 447.148 723.129 446.027 726.626 443.987C730.096 441.74 732.891 438.43 734.667 434.464C736.384 430.547 738.336 424.319 735.214 420.596Z" stroke="#1C186C" stroke-width="4.63957" stroke-linecap="round" stroke-linejoin="round"/>
<path d="M721.63 423.078C722.421 425.999 723.848 428.665 725.787 430.847C727.734 433.024 730.14 434.641 732.793 435.555" stroke="#1C186C" stroke-width="4.63957" stroke-linecap="round" stroke-linejoin="round"/>
<path d="M730.061 423.142C729.879 422.935 729.661 422.77 729.419 422.658C729.178 422.545 728.918 422.487 728.656 422.487C728.393 422.487 728.134 422.545 727.892 422.658C727.651 422.77 727.433 422.935 727.251 423.142C726.985 423.445 726.806 423.826 726.737 424.239C726.667 424.652 726.71 425.078 726.86 425.465C727.009 425.851 727.26 426.181 727.579 426.412C727.898 426.644 728.273 426.768 728.656 426.768C729.039 426.768 729.413 426.644 729.733 426.412C730.052 426.181 730.302 425.851 730.452 425.465C730.602 425.078 730.644 424.652 730.575 424.239C730.505 423.826 730.327 423.445 730.061 423.142Z" fill="#201D67"/>
<path d="M315.503 409.039L323.524 433.244L331.545 409.039" stroke="#1C186C" stroke-width="4.63957" stroke-linecap="round" stroke-linejoin="round"/>
<path d="M335.567 407.947C335.236 407.947 334.943 407.969 334.67 408.011C332.523 408.397 332.23 410.152 329.537 410.152C326.512 410.152 326.512 407.947 323.526 407.947C320.501 407.947 320.501 410.152 317.515 410.152C314.822 410.152 314.548 408.418 312.382 408.011C312.128 407.969 311.816 407.947 311.484 407.947" stroke="#1C186C" stroke-width="4.63957" stroke-linecap="round" stroke-linejoin="round"/>
<path d="M333.558 404.651C333.558 405.807 333.402 406.963 333.07 408.011C331.216 408.397 330.982 410.151 328.679 410.151C326.083 410.151 326.083 407.947 323.526 407.947C320.931 407.947 320.931 410.151 318.374 410.151C316.071 410.151 315.818 408.418 313.983 408.011C313.671 406.963 313.495 405.807 313.495 404.651C313.495 398.573 317.984 393.651 323.526 393.651C329.069 393.651 333.558 398.573 333.558 404.651Z" stroke="#1C186C" stroke-width="4.63957" stroke-linecap="round" stroke-linejoin="round"/>
<path d="M333.557 411.242H313.494" stroke="#1C186C" stroke-width="4.63957" stroke-linecap="round" stroke-linejoin="round"/>
<path d="M839.886 460.006L847.907 484.211L855.928 460.006" stroke="#1C186C" stroke-width="4.63957" stroke-linecap="round" stroke-linejoin="round"/>
<path d="M859.948 458.915C859.616 458.915 859.324 458.936 859.05 458.979C856.904 459.364 856.611 461.119 853.918 461.119C850.893 461.119 850.893 458.915 847.907 458.915C844.882 458.915 844.882 461.119 841.896 461.119C839.202 461.119 838.929 459.385 836.763 458.979C836.509 458.936 836.197 458.915 835.865 458.915" stroke="#1C186C" stroke-width="4.63957" stroke-linecap="round" stroke-linejoin="round"/>
<path d="M857.94 455.62C857.94 456.775 857.783 457.931 857.452 458.98C855.598 459.365 855.363 461.12 853.061 461.12C850.465 461.12 850.465 458.915 847.908 458.915C845.313 458.915 845.313 461.12 842.756 461.12C840.453 461.12 840.199 459.386 838.365 458.98C838.053 457.931 837.877 456.775 837.877 455.62C837.877 449.541 842.366 444.619 847.908 444.619C853.451 444.619 857.94 449.541 857.94 455.62Z" stroke="#1C186C" stroke-width="4.63957" stroke-linecap="round" stroke-linejoin="round"/>
<path d="M857.94 462.211H837.877" stroke="#1C186C" stroke-width="4.63957" stroke-linecap="round" stroke-linejoin="round"/>
<path d="M522.004 421.694H507.562V423.962H522.004V421.694Z" stroke="#1C186C" stroke-width="4.63957" stroke-linecap="round" stroke-linejoin="round"/>
<path d="M530.748 403.589C532.075 403.589 533.09 404.959 532.778 406.371C530.729 415.167 523.449 421.673 514.784 421.673C506.119 421.673 498.839 415.167 496.79 406.371C496.458 404.959 497.473 403.589 498.82 403.589H530.748V403.589Z" stroke="#1C186C" stroke-width="4.63957" stroke-linecap="round" stroke-linejoin="round"/>
<path d="M506.999 403.588C509.273 403.588 511.117 401.566 511.117 399.072C511.117 396.578 509.273 394.556 506.999 394.556C504.725 394.556 502.881 396.578 502.881 399.072C502.881 401.566 504.725 403.588 506.999 403.588Z" stroke="#1C186C" stroke-width="4.63957" stroke-linecap="round" stroke-linejoin="round"/>
<path d="M522.573 403.246C524.847 403.246 526.691 401.224 526.691 398.73C526.691 396.236 524.847 394.214 522.573 394.214C520.299 394.214 518.455 396.236 518.455 398.73C518.455 401.224 520.299 403.246 522.573 403.246Z" stroke="#1C186C" stroke-width="4.63957" stroke-linecap="round" stroke-linejoin="round"/>
<path d="M515.429 403.267C517.143 403.267 518.532 401.743 518.532 399.864C518.532 397.984 517.143 396.461 515.429 396.461C513.715 396.461 512.326 397.984 512.326 399.864C512.326 401.743 513.715 403.267 515.429 403.267Z" stroke="#1C186C" stroke-width="4.63957" stroke-linecap="round" stroke-linejoin="round"/>
<path d="M504.753 394.856L498.273 387.751" stroke="#1C186C" stroke-width="4.63957" stroke-linecap="round" stroke-linejoin="round"/>
<path d="M499.327 410.33H530.241" stroke="#1C186C" stroke-width="4.63957" stroke-linecap="round" stroke-linejoin="round"/>
<path d="M438.67 344.565H403.541C403.541 348.118 406.156 350.986 409.396 350.986H432.815C436.055 350.986 438.67 348.118 438.67 344.565Z" stroke="#1C186C" stroke-width="4.63957" stroke-linecap="round" stroke-linejoin="round"/>
<path d="M421.106 325.304C412.48 325.304 405.493 332.965 405.493 342.425V344.565H436.719V342.425C436.719 332.965 429.732 325.304 421.106 325.304Z" stroke="#1C186C" stroke-width="4.63957" stroke-linecap="round" stroke-linejoin="round"/>
<path d="M421.106 326.908C422.992 326.908 424.521 325.231 424.521 323.163C424.521 321.094 422.992 319.417 421.106 319.417C419.22 319.417 417.69 321.094 417.69 323.163C417.69 325.231 419.22 326.908 421.106 326.908Z" fill="#201D67"/>
<path d="M294.235 267.048C299.641 267.412 305.047 270.002 309.321 274.753C313.556 279.461 315.879 285.454 316.23 291.446" stroke="#1C186C" stroke-width="4.63957" stroke-linecap="round" stroke-linejoin="round"/>
<path d="M318.453 292.837L316.052 293.479L291.696 300.006C288.417 300.884 285.548 297.674 286.368 294.035L288.085 286.331L288.203 285.839L289.705 279.14L289.842 278.498L292.379 267.262L293.004 264.523C293.589 261.89 295.911 260.2 298.292 260.628C304.147 261.676 309.651 264.63 314.042 269.509C318.414 274.346 321.048 280.445 322.005 286.93C322.395 289.584 320.834 292.195 318.453 292.837Z" stroke="#1C186C" stroke-width="4.63957" stroke-linecap="round" stroke-linejoin="round"/>
<path d="M303.738 285.99C305.462 285.99 306.86 284.438 306.86 282.523C306.86 280.608 305.462 279.056 303.738 279.056C302.013 279.056 300.615 280.608 300.615 282.523C300.615 284.438 302.013 285.99 303.738 285.99Z" stroke="#1C186C" stroke-width="4.63957" stroke-linecap="round" stroke-linejoin="round"/>
<path d="M292.184 284.683C291.111 285.881 289.569 286.267 288.203 285.796L290.155 277.064C290.896 277.257 291.599 277.642 292.184 278.284C293.785 280.06 293.785 282.928 292.184 284.683Z" stroke="#1C186C" stroke-width="4.63957" stroke-linecap="round" stroke-linejoin="round"/>
<path d="M294.643 296.883C294.351 295.642 294.643 294.272 295.502 293.309C296.81 291.853 298.917 291.853 300.225 293.309C300.654 293.78 300.947 294.357 301.084 294.978" stroke="#1C186C" stroke-width="4.63957" stroke-linecap="round" stroke-linejoin="round"/>
<path d="M857.729 253.676C863.134 254.04 868.54 256.63 872.815 261.381C877.05 266.089 879.372 272.082 879.723 278.074" stroke="#1C186C" stroke-width="4.63957" stroke-linecap="round" stroke-linejoin="round"/>
<path d="M881.948 279.466L879.547 280.108L855.191 286.635C851.912 287.513 849.043 284.303 849.863 280.664L851.581 272.96L851.698 272.468L853.2 265.769L853.337 265.127L855.874 253.891L856.499 251.152C857.084 248.519 859.407 246.829 861.788 247.257C867.642 248.305 873.146 251.259 877.537 256.138C881.909 260.975 884.543 267.074 885.5 273.559C885.89 276.213 884.329 278.824 881.948 279.466Z" stroke="#1C186C" stroke-width="4.63957" stroke-linecap="round" stroke-linejoin="round"/>
<path d="M867.234 272.617C868.958 272.617 870.357 271.064 870.357 269.15C870.357 267.235 868.958 265.683 867.234 265.683C865.509 265.683 864.111 267.235 864.111 269.15C864.111 271.064 865.509 272.617 867.234 272.617Z" stroke="#1C186C" stroke-width="4.63957" stroke-linecap="round" stroke-linejoin="round"/>
<path d="M855.68 271.312C854.606 272.511 853.064 272.896 851.698 272.425L853.65 263.693C854.391 263.886 855.094 264.271 855.68 264.913C857.28 266.69 857.28 269.557 855.68 271.312Z" stroke="#1C186C" stroke-width="4.63957" stroke-linecap="round" stroke-linejoin="round"/>
<path d="M858.138 283.511C857.846 282.269 858.138 280.9 858.997 279.937C860.305 278.481 862.412 278.481 863.72 279.937C864.149 280.408 864.442 280.985 864.579 281.606" stroke="#1C186C" stroke-width="4.63957" stroke-linecap="round" stroke-linejoin="round"/>
<path d="M220.385 346.512L200.4 368.427C198.273 370.76 198.273 374.526 200.4 376.859C202.527 379.192 205.962 379.192 208.09 376.859L228.074 354.944C230.201 352.611 230.201 348.845 228.074 346.512C225.947 344.179 222.512 344.179 220.385 346.512Z" stroke="#1C186C" stroke-width="4.63957" stroke-linecap="round" stroke-linejoin="round"/>
<path d="M204.596 371.338C206.899 368.812 207.718 369.711 210.041 367.186C212.344 364.66 211.524 363.761 213.827 361.215C216.13 358.689 216.969 359.588 219.272 357.063C221.575 354.537 220.755 353.617 223.058 351.092" stroke="#1C186C" stroke-width="4.63957" stroke-linecap="round" stroke-linejoin="round"/>
<path d="M213.476 343.986L198.097 360.85C195.541 363.654 195.541 368.169 198.097 370.973L222.688 344.007C220.15 341.182 216.013 341.182 213.476 343.986Z" stroke="#1C186C" stroke-width="4.63957" stroke-linecap="round" stroke-linejoin="round"/>
<path d="M214.998 379.384L230.377 362.52C232.933 359.716 232.933 355.201 230.377 352.397L205.786 379.363C208.323 382.188 212.461 382.188 214.998 379.384Z" stroke="#1C186C" stroke-width="4.63957" stroke-linecap="round" stroke-linejoin="round"/>
<path d="M875.644 91.8345L855.66 113.75C853.533 116.082 853.533 119.849 855.66 122.182C857.787 124.515 861.222 124.515 863.349 122.182L883.334 100.267C885.461 97.934 885.461 94.1673 883.334 91.8345C881.207 89.5018 877.772 89.5018 875.644 91.8345Z" stroke="#1C186C" stroke-width="4.63957" stroke-linecap="round" stroke-linejoin="round"/>
<path d="M859.855 116.659C862.158 114.134 862.978 115.033 865.3 112.508C867.603 109.982 866.784 109.083 869.087 106.536C871.39 104.011 872.229 104.91 874.532 102.385C876.835 99.8592 876.015 98.939 878.318 96.4136" stroke="#1C186C" stroke-width="4.63957" stroke-linecap="round" stroke-linejoin="round"/>
<path d="M868.736 89.3085L853.357 106.173C850.8 108.977 850.8 113.492 853.357 116.296L877.947 89.3299C875.41 86.5049 871.273 86.5049 868.736 89.3085Z" stroke="#1C186C" stroke-width="4.63957" stroke-linecap="round" stroke-linejoin="round"/>
<path d="M870.259 124.706L885.637 107.841C888.194 105.038 888.194 100.522 885.637 97.7183L861.047 124.684C863.584 127.509 867.721 127.509 870.259 124.706Z" stroke="#1C186C" stroke-width="4.63957" stroke-linecap="round" stroke-linejoin="round"/>
<path d="M803.435 345.056L783.451 366.971C781.324 369.304 781.324 373.071 783.451 375.404C785.578 377.736 789.013 377.736 791.14 375.404L811.125 353.488C813.252 351.156 813.252 347.389 811.125 345.056C808.998 342.723 805.563 342.723 803.435 345.056Z" stroke="#1C186C" stroke-width="4.63957" stroke-linecap="round" stroke-linejoin="round"/>
<path d="M787.647 369.884C789.95 367.358 790.77 368.257 793.092 365.732C795.395 363.206 794.576 362.307 796.879 359.761C799.182 357.235 800.021 358.134 802.324 355.609C804.627 353.083 803.807 352.163 806.11 349.638" stroke="#1C186C" stroke-width="4.63957" stroke-linecap="round" stroke-linejoin="round"/>
<path d="M796.527 342.532L781.148 359.396C778.591 362.2 778.591 366.715 781.148 369.519L805.738 342.553C803.201 339.728 799.064 339.728 796.527 342.532Z" stroke="#1C186C" stroke-width="4.63957" stroke-linecap="round" stroke-linejoin="round"/>
<path d="M798.05 377.929L813.428 361.065C815.985 358.261 815.985 353.745 813.428 350.942L788.838 377.908C791.375 380.733 795.512 380.733 798.05 377.929Z" stroke="#1C186C" stroke-width="4.63957" stroke-linecap="round" stroke-linejoin="round"/>
<path d="M116.655 297.953H97.1387C93.6648 297.953 90.8545 294.871 90.8545 291.061V286.952H122.939V291.061C122.939 294.871 120.129 297.953 116.655 297.953Z" stroke="#1C186C" stroke-width="4.63957" stroke-linecap="round" stroke-linejoin="round"/>
<path d="M121.943 280.36H91.8492C90.1904 280.36 88.8438 281.837 88.8438 283.656C88.8438 285.475 90.1904 286.952 91.8492 286.952H121.943C123.602 286.952 124.949 285.475 124.949 283.656C124.949 281.837 123.602 280.36 121.943 280.36Z" stroke="#1C186C" stroke-width="4.63957" stroke-linecap="round" stroke-linejoin="round"/>
<path d="M107.931 262.768H105.862C97.5681 262.768 90.8545 270.13 90.8545 279.226V280.36H122.939V279.226C122.939 270.13 116.226 262.768 107.931 262.768Z" stroke="#1C186C" stroke-width="4.63957" stroke-linecap="round" stroke-linejoin="round"/>
<path d="M90.6387 287.487C91.3998 288.386 91.9463 289.606 93.3709 289.606C94.7956 289.606 95.3421 288.386 96.1032 287.487" stroke="#1C186C" stroke-width="4.63957" stroke-linecap="round" stroke-linejoin="round"/>
<path d="M108.965 287.487C109.726 288.386 110.272 289.606 111.697 289.606C113.141 289.606 113.688 288.386 114.449 287.487" stroke="#1C186C" stroke-width="4.63957" stroke-linecap="round" stroke-linejoin="round"/>
<path d="M120.889 289.584C119.465 289.584 118.918 288.364 118.157 287.465" stroke="#1C186C" stroke-width="4.63957" stroke-linecap="round" stroke-linejoin="round"/>
<path d="M99.8115 287.487C100.573 288.386 101.119 289.606 102.544 289.606C103.968 289.606 104.515 288.386 105.276 287.487" stroke="#1C186C" stroke-width="4.63957" stroke-linecap="round" stroke-linejoin="round"/>
<path d="M787.125 43.2748H767.608C764.135 43.2748 761.324 40.193 761.324 36.3835V32.2744H793.409V36.3835C793.409 40.193 790.598 43.2748 787.125 43.2748Z" stroke="#1C186C" stroke-width="4.63957" stroke-linecap="round" stroke-linejoin="round"/>
<path d="M792.414 25.6816H762.32C760.661 25.6816 759.314 27.1583 759.314 28.9775C759.314 30.7966 760.661 32.2733 762.32 32.2733H792.414C794.073 32.2733 795.419 30.7966 795.419 28.9775C795.419 27.1583 794.073 25.6816 792.414 25.6816Z" stroke="#1C186C" stroke-width="4.63957" stroke-linecap="round" stroke-linejoin="round"/>
<path d="M778.401 8.08984H776.332C768.038 8.08984 761.324 15.452 761.324 24.5476V25.6819H793.409V24.5476C793.409 15.452 786.695 8.08984 778.401 8.08984Z" stroke="#1C186C" stroke-width="4.63957" stroke-linecap="round" stroke-linejoin="round"/>
<path d="M761.111 32.8081C761.872 33.707 762.419 34.9269 763.844 34.9269C765.268 34.9269 765.815 33.707 766.576 32.8081" stroke="#1C186C" stroke-width="4.63957" stroke-linecap="round" stroke-linejoin="round"/>
<path d="M779.437 32.8081C780.198 33.707 780.744 34.9269 782.169 34.9269C783.613 34.9269 784.159 33.707 784.921 32.8081" stroke="#1C186C" stroke-width="4.63957" stroke-linecap="round" stroke-linejoin="round"/>
<path d="M791.361 34.9063C789.936 34.9063 789.39 33.6865 788.629 32.7876" stroke="#1C186C" stroke-width="4.63957" stroke-linecap="round" stroke-linejoin="round"/>
<path d="M770.284 32.8081C771.045 33.707 771.592 34.9269 773.016 34.9269C774.441 34.9269 774.988 33.707 775.749 32.8081" stroke="#1C186C" stroke-width="4.63957" stroke-linecap="round" stroke-linejoin="round"/>
<path d="M714.919 310.792H695.402C691.928 310.792 689.118 307.71 689.118 303.901V299.792H721.203V303.901C721.203 307.71 718.392 310.792 714.919 310.792Z" stroke="#1C186C" stroke-width="4.63957" stroke-linecap="round" stroke-linejoin="round"/>
<path d="M720.208 293.2H690.114C688.455 293.2 687.108 294.677 687.108 296.496C687.108 298.315 688.455 299.792 690.114 299.792H720.208C721.867 299.792 723.213 298.315 723.213 296.496C723.213 294.677 721.867 293.2 720.208 293.2Z" stroke="#1C186C" stroke-width="4.63957" stroke-linecap="round" stroke-linejoin="round"/>
<path d="M706.195 275.607H704.126C695.832 275.607 689.118 282.97 689.118 292.065V293.199H721.203V292.065C721.203 282.97 714.489 275.607 706.195 275.607Z" stroke="#1C186C" stroke-width="4.63957" stroke-linecap="round" stroke-linejoin="round"/>
<path d="M688.903 300.326C689.664 301.225 690.211 302.445 691.636 302.445C693.06 302.445 693.607 301.225 694.368 300.326" stroke="#1C186C" stroke-width="4.63957" stroke-linecap="round" stroke-linejoin="round"/>
<path d="M707.229 300.326C707.99 301.225 708.536 302.445 709.961 302.445C711.405 302.445 711.951 301.225 712.713 300.326" stroke="#1C186C" stroke-width="4.63957" stroke-linecap="round" stroke-linejoin="round"/>
<path d="M719.153 302.423C717.728 302.423 717.182 301.204 716.421 300.305" stroke="#1C186C" stroke-width="4.63957" stroke-linecap="round" stroke-linejoin="round"/>
<path d="M698.075 300.326C698.836 301.225 699.383 302.445 700.807 302.445C702.232 302.445 702.779 301.225 703.54 300.326" stroke="#1C186C" stroke-width="4.63957" stroke-linecap="round" stroke-linejoin="round"/>
</g>
</svg>
